<?xml version="1.0" encoding="UTF-8" standalone="no"?>
<svg width="226.483mm" height="170.039mm"
 viewBox="0 0 642 482"
 xmlns="http://www.w3.org/2000/svg" xmlns:xlink="http://www.w3.org/1999/xlink"  version="1.2" baseProfile="tiny">
<title>Qt SVG Document</title>
<desc>Generated with Qt</desc>
<defs>
</defs>
<g fill="none" stroke="black" stroke-width="1" fill-rule="evenodd" stroke-linecap="square" stroke-linejoin="bevel" >

<g fill="none" stroke="#000000" stroke-opacity="1" stroke-width="1" stroke-linecap="square" stroke-linejoin="bevel" transform="matrix(1,0,0,1,0,0)"
font-family=".Helvetica Neue DeskInterface" font-size="13" font-weight="400" font-style="normal" 
>
</g>

<g fill="none" stroke="#000000" stroke-opacity="1" stroke-width="1" stroke-linecap="square" stroke-linejoin="bevel" transform="matrix(1.00313,0,0,1.00313,0,0)"
font-family=".Helvetica Neue DeskInterface" font-size="13" font-weight="400" font-style="normal" 
>
</g>

<g fill="none" stroke="#000000" stroke-opacity="1" stroke-dasharray="1,2" stroke-dashoffset="0" stroke-width="1" stroke-linecap="round" stroke-linejoin="round" transform="matrix(1.00313,0,0,1.00313,0,0)"
font-family=".Helvetica Neue DeskInterface" font-size="13" font-weight="400" font-style="normal" 
>
<polyline fill="none" vector-effect="none" points="63.5,438.5 63.5,16.5 " />
</g>

<g fill="none" stroke="#000000" stroke-opacity="1" stroke-width="1" stroke-linecap="round" stroke-linejoin="round" transform="matrix(1.00313,0,0,1.00313,0,0)"
font-family=".Helvetica Neue DeskInterface" font-size="13" font-weight="400" font-style="normal" 
>
<polyline fill="none" vector-effect="none" points="63.5,16.5 63.5,16.5 63.5,438.5 624.5,438.5 624.5,16.5 63.5,16.5 " />
</g>

<g fill="none" stroke="#000000" stroke-opacity="1" stroke-width="1" stroke-linecap="square" stroke-linejoin="bevel" transform="matrix(1.00313,0,0,1.00313,0,0)"
font-family=".Helvetica Neue DeskInterface" font-size="13" font-weight="400" font-style="normal" 
>
</g>

<g fill="none" stroke="#000000" stroke-opacity="1" stroke-width="1" stroke-linecap="square" stroke-linejoin="bevel" transform="matrix(0,-1.00313,1.00313,0,11.4341,231.04)"
font-family=".Helvetica Neue DeskInterface" font-size="13" font-weight="400" font-style="normal" 
>
</g>

<g fill="none" stroke="#000000" stroke-opacity="1" stroke-width="1" stroke-linecap="square" stroke-linejoin="bevel" transform="matrix(0,-1.00313,1.00313,0,11.4341,231.04)"
font-family=".Helvetica Neue DeskInterface" font-size="13" font-weight="400" font-style="normal" 
>
</g>

<g fill="none" stroke="#000000" stroke-opacity="1" stroke-width="1" stroke-linecap="square" stroke-linejoin="bevel" transform="matrix(0,-1.00313,1.00313,0,11.4341,231.04)"
font-family=".Helvetica Neue DeskInterface" font-size="13" font-weight="400" font-style="normal" 
>
</g>

<g fill="none" stroke="#000000" stroke-opacity="1" stroke-width="1" stroke-linecap="square" stroke-linejoin="bevel" transform="matrix(0,-1.00313,1.00313,0,11.4341,231.04)"
font-family=".Helvetica Neue DeskInterface" font-size="13" font-weight="400" font-style="normal" 
>
</g>

<g fill="none" stroke="#000000" stroke-opacity="1" stroke-width="1" stroke-linecap="square" stroke-linejoin="bevel" transform="matrix(0,-1.00313,1.00313,0,11.4341,231.04)"
font-family=".Helvetica Neue DeskInterface" font-size="13" font-weight="400" font-style="normal" 
>
</g>

<g fill="none" stroke="#000000" stroke-opacity="1" stroke-width="1" stroke-linecap="square" stroke-linejoin="bevel" transform="matrix(0,-1.00313,1.00313,0,11.4341,231.04)"
font-family="Sans" font-size="9" font-weight="400" font-style="normal" 
>
<text fill="#000000" fill-opacity="1" stroke="none" xml:space="preserve" x="0" y="0" font-family="Sans" font-size="9" font-weight="400" font-style="normal" 
 >y</text>
</g>

<g fill="none" stroke="#000000" stroke-opacity="1" stroke-width="1" stroke-linecap="square" stroke-linejoin="bevel" transform="matrix(0,-1.00313,1.00313,0,11.4341,231.04)"
font-family=".Helvetica Neue DeskInterface" font-size="13" font-weight="400" font-style="normal" 
>
</g>

<g fill="none" stroke="#000000" stroke-opacity="1" stroke-width="1" stroke-linecap="square" stroke-linejoin="bevel" transform="matrix(1.00313,0,0,1.00313,342.52,470.865)"
font-family=".Helvetica Neue DeskInterface" font-size="13" font-weight="400" font-style="normal" 
>
</g>

<g fill="none" stroke="#000000" stroke-opacity="1" stroke-width="1" stroke-linecap="square" stroke-linejoin="bevel" transform="matrix(1.00313,0,0,1.00313,342.52,470.865)"
font-family=".Helvetica Neue DeskInterface" font-size="13" font-weight="400" font-style="normal" 
>
</g>

<g fill="none" stroke="#000000" stroke-opacity="1" stroke-width="1" stroke-linecap="square" stroke-linejoin="bevel" transform="matrix(1.00313,0,0,1.00313,342.52,470.865)"
font-family=".Helvetica Neue DeskInterface" font-size="13" font-weight="400" font-style="normal" 
>
</g>

<g fill="none" stroke="#000000" stroke-opacity="1" stroke-width="1" stroke-linecap="square" stroke-linejoin="bevel" transform="matrix(1.00313,0,0,1.00313,342.52,470.865)"
font-family=".Helvetica Neue DeskInterface" font-size="13" font-weight="400" font-style="normal" 
>
</g>

<g fill="none" stroke="#000000" stroke-opacity="1" stroke-width="1" stroke-linecap="square" stroke-linejoin="bevel" transform="matrix(1.00313,0,0,1.00313,342.52,470.865)"
font-family=".Helvetica Neue DeskInterface" font-size="13" font-weight="400" font-style="normal" 
>
</g>

<g fill="none" stroke="#000000" stroke-opacity="1" stroke-width="1" stroke-linecap="square" stroke-linejoin="bevel" transform="matrix(1.00313,0,0,1.00313,342.52,470.865)"
font-family="Sans" font-size="9" font-weight="400" font-style="normal" 
>
<text fill="#000000" fill-opacity="1" stroke="none" xml:space="preserve" x="0" y="0" font-family="Sans" font-size="9" font-weight="400" font-style="normal" 
 >x</text>
</g>

<g fill="none" stroke="#000000" stroke-opacity="1" stroke-width="1" stroke-linecap="square" stroke-linejoin="bevel" transform="matrix(1.00313,0,0,1.00313,342.52,470.865)"
font-family=".Helvetica Neue DeskInterface" font-size="13" font-weight="400" font-style="normal" 
>
</g>

<g fill="none" stroke="#000000" stroke-opacity="1" stroke-width="1" stroke-linecap="square" stroke-linejoin="bevel" transform="matrix(1.00313,0,0,1.00313,0,0)"
font-family=".Helvetica Neue DeskInterface" font-size="13" font-weight="400" font-style="normal" 
>
</g>

<g fill="none" stroke="#000000" stroke-opacity="1" stroke-width="1" stroke-linecap="square" stroke-linejoin="bevel" transform="matrix(1.00313,0,0,1.00313,0,0)"
font-family=".Helvetica Neue DeskInterface" font-size="13" font-weight="400" font-style="normal" 
>
</g>

<g fill="none" stroke="#000000" stroke-opacity="1" stroke-width="1" stroke-linecap="square" stroke-linejoin="bevel" transform="matrix(1.00313,0,0,1.00313,0,0)"
font-family=".Helvetica Neue DeskInterface" font-size="13" font-weight="400" font-style="normal" 
>
</g>

<g fill="none" stroke="#0000ff" stroke-opacity="1" stroke-width="1" stroke-linecap="round" stroke-linejoin="round" transform="matrix(1.00313,0,0,1.00313,0,0)"
font-family=".Helvetica Neue DeskInterface" font-size="13" font-weight="400" font-style="normal" 
>
<polyline fill="none" vector-effect="none" points="63.5,140 63.5,140 63.7,140 63.9,140 64.1,140 64.2,140 64.4,140 64.6,140 64.8,140 65,140 65.2,140 65.4,140 65.6,140 65.7,140 65.9,140 66.1,140 66.3,140 66.5,140 66.7,140 66.9,140 67.1,140 67.2,140 67.4,140 67.6,140 67.8,140 68,140 68.2,140 68.4,140 68.6,140 68.7,140 68.9,140 69.1,140 69.3,140 69.5,140 69.7,140 69.9,140 70,140 70.2,140 70.4,140 70.6,140 70.8,140 71,140 71.2,140 71.4,140 71.5,140 71.7,140 71.9,140 72.1,140 72.3,140 72.5,140 72.7,140 72.9,140 73,140 73.2,140 73.4,140 73.6,140 73.8,140 74,140 74.2,140 74.4,140 74.5,140 74.7,140 74.9,140 75.1,140 75.3,140 75.5,140 75.7,140 75.9,140 76,140 76.2,140 76.4,140 76.6,140 76.8,140 77,140 77.2,140 77.3,140 77.5,140 77.7,140 77.9,140 78.1,140 78.3,140 78.5,140 78.7,140 78.8,140 79,140 79.2,140 79.4,140 79.6,140 79.8,140 80,140 80.2,140 80.3,140 80.5,140 80.7,140 80.9,140 81.1,140 81.3,140 81.5,140 81.7,140 81.8,140 82,140 82.2,140 82.4,140 82.6,140 82.8,140 83,140 83.1,140 83.3,140 83.5,140 83.7,140 83.9,140 84.1,140 84.3,140 84.5,140 84.6,140 84.8,140 85,140 85.2,140 85.4,140 85.6,140 85.8,140 86,140 86.1,140 86.3,140 86.5,140 86.7,140 86.9,140 87.1,140 87.3,140 87.5,140 87.6,140 87.8,140 88,140 88.2,140 88.4,140 88.6,140 88.8,140 89,140 89.1,140 89.3,140 89.5,140 89.7,140 89.9,140 90.1,140 90.3,140 90.4,140 90.6,140 90.8,140 91,140 91.2,140 91.4,140 91.6,140 91.8,140 91.9,140 92.1,140 92.3,140 92.5,140 92.7,140 92.9,140 93.1,140 93.3,140 93.4,140 93.6,140 93.8,140 94,140 94.2,140 94.4,140 94.6,140 94.8,140 94.9,140 95.1,140 95.3,140 95.5,140 95.7,140 95.9,140 96.1,140 96.2,140 96.4,140 96.6,140 96.8,140 97,140 97.2,140 97.4,140 97.6,140 97.7,140 97.9,140 98.1,140 98.3,140 98.5,140 98.7,140 98.9,140 99.1,140 99.2,140 99.4,140 99.6,140 99.8,140 100,140 100.2,140 100.4,140 100.6,140 100.7,140 100.9,140 101.1,140 101.3,140 101.5,140 101.7,140 101.9,140 102,140 102.2,140 102.4,140 102.6,140 102.8,140 103,140 103.2,140 103.4,140 103.5,140 103.7,140 103.9,140 104.1,140 104.3,140 104.5,140 104.7,140 104.9,140 105,140 105.2,140 105.4,140 105.6,140 105.8,140 106,140 106.2,140 106.4,140 106.5,140 106.7,140 106.9,140 107.1,140 107.3,140 107.5,140 107.7,140 107.9,140 108,140 108.2,140 108.4,140 108.6,140 108.8,140 109,140 109.2,140 109.3,140 109.5,140 109.7,140 109.9,140 110.1,140 110.3,140 110.5,140 110.7,140 110.8,140 111,140 111.2,140 111.4,140 111.6,140 111.8,140 112,140 112.2,140 112.3,140 112.5,140 112.7,140 112.9,140 113.1,140 113.3,140 113.5,140 113.7,140 113.8,140 114,140 114.2,140 114.4,140 114.6,140 114.8,140 115,140 115.1,140 115.3,140 115.5,140 115.7,140 115.9,140 116.1,140 116.3,140 116.5,140 116.6,140 116.8,140 117,140 117.2,140 117.4,140 117.6,140 117.8,140 118,140 118.1,140 118.3,140 118.5,140 118.7,140 118.9,140 119.1,140 119.3,140 119.5,140 119.6,140 119.8,140 120,140 120.2,140 120.4,140 120.6,140 120.8,140 120.9,140 121.1,140 121.3,140 121.5,140 121.7,140 121.9,140 122.1,140 122.3,140 122.4,140 122.6,140 122.8,140 123,140 123.2,140 123.4,140 123.6,140 123.8,140 123.9,140 124.1,140 124.3,140 124.5,140 124.7,140 124.9,140 125.1,140 125.3,140 125.4,140 125.6,140 125.8,140 126,140 126.2,140 126.4,140 126.6,140 126.8,140 126.9,140 127.1,140 127.3,140 127.5,140 127.7,140 127.9,140 128.1,140 128.2,140 128.4,140 128.6,140 128.8,140 129,140 129.2,140 129.4,140 129.6,140 129.7,140 129.9,140 130.1,140 130.3,140 130.5,140 130.7,140 130.9,140 131.1,140 131.2,140 131.4,140 131.6,140 131.8,140 132,140 132.2,140 132.4,140 132.6,140 132.7,140 132.9,140 133.1,140 133.3,140 133.5,140 133.7,140 133.9,140 134,140 134.2,140 134.4,140 134.6,140 134.8,140 135,140 135.2,140 135.4,140 135.5,140 135.7,140 135.9,140 136.1,140 136.3,140 136.5,140 136.7,140 136.9,140 137,140 137.2,140 137.4,140 137.6,140 137.8,140 138,140 138.2,140 138.4,140 138.5,140 138.7,140 138.9,140 139.1,140 139.3,140 139.5,140 139.7,140 139.9,140 140,140 140.2,140 140.4,140 140.6,140 140.8,140 141,140 141.2,140 141.3,140 141.5,140 141.7,140 141.9,140 142.1,140 142.3,140 142.5,140 142.7,140 142.8,140 143,140 143.2,140 143.4,140 143.6,140 143.8,140 144,140 144.2,140 144.3,140 144.5,140 144.7,140 144.9,140 145.1,140 145.3,140 145.5,140 145.7,140 145.8,140 146,140 146.2,140 146.4,140 146.6,140 146.8,140 147,140 147.1,140 147.3,140 147.5,140 147.7,140 147.9,140 148.1,140 148.3,140 148.5,140 148.6,140 148.8,140 149,140 149.2,140 149.4,140 149.6,140 149.8,140 150,140 150.1,140 150.3,140 150.5,140 150.7,140 150.9,140 151.1,140 151.3,140 151.5,140 151.6,140 151.8,140 152,140 152.2,140 152.4,140 152.6,140 152.8,140 152.9,140 153.1,140 153.3,140 153.5,140 153.7,140 153.9,140 154.1,140 154.3,140 154.4,140 154.6,140 154.8,140 155,140 155.2,140 155.4,140 155.6,140 155.8,140 155.9,140 156.1,140 156.3,140 156.5,140 156.7,140 156.9,140 157.1,140 157.3,140 157.4,140 157.6,140 157.8,140 158,140 158.2,140 158.4,140 158.6,140 158.8,140 158.9,140 159.1,140 159.3,140 159.5,140 159.7,140 159.9,140 160.1,140 160.2,140 160.4,140 160.6,140 160.8,140 161,140 161.2,140 161.4,140 161.6,140 161.7,140 161.9,140 162.1,140 162.3,140 162.5,140 162.7,140 162.9,140 163.1,140 163.2,140 163.4,140 163.6,140 163.8,140 164,140 164.2,140 164.4,140 164.6,140 164.7,140 164.9,140 165.1,140 165.3,140 165.5,140 165.7,140 165.9,140 166,140 166.2,140 166.4,140 166.6,140 166.8,140 167,140 167.2,140 167.4,140 167.5,140 167.7,140 167.9,140 168.1,140 168.3,140 168.5,140 168.7,140 168.9,140 169,140 169.2,140 169.4,140 169.6,140 169.8,140 170,140 170.2,140 170.4,140 170.5,140 170.7,140 170.9,140 171.1,140 171.3,140 171.5,140 171.7,140 171.9,140 172,140 172.2,140 172.4,140 172.6,140 172.8,140 173,140 173.2,140 173.3,140 173.5,140 173.7,140 173.9,140 174.1,140 174.3,140 174.5,140 174.7,140 174.8,140 175,140 175.2,140 175.4,140 175.6,140 175.8,140 176,140 176.2,140 176.3,140 176.5,140 176.7,140 176.9,140 177.1,140 177.3,140 177.5,140 177.7,140 177.8,140 178,140 178.2,140 178.4,140 178.6,140 178.8,140 179,140 179.1,140 179.3,140 179.5,140 179.7,140 179.9,140 180.1,140 180.3,140 180.5,140 180.6,140 180.8,140 181,140 181.2,140 181.4,140 181.6,140 181.8,140 182,140 182.1,140 182.3,140 182.5,140 182.7,140 182.9,140 183.1,140 183.3,140 183.5,140 183.6,140 183.8,140 184,140 184.2,140 184.4,140 184.6,140 184.8,140 184.9,140 185.1,140 185.3,140 185.5,140 185.7,140 185.9,140 186.1,140 186.3,140 186.4,140 186.6,140 186.8,140 187,140 187.2,140 187.4,140 187.6,140 187.8,140 187.9,140 188.1,140 188.3,140 188.5,140 188.7,140 188.9,140 189.1,140 189.3,140 189.4,140 189.6,140 189.8,140 190,140 190.2,140 190.4,140 190.6,140 190.8,140 190.9,140 191.1,140 191.3,140 191.5,140 191.7,140 191.9,140 192.1,140 192.2,140 192.4,140 192.6,140 192.8,140 193,140 193.2,140 193.4,140 193.6,140 193.7,140 193.9,140 194.1,140 194.3,140 194.5,140 194.7,140 194.9,140 195.1,140 195.2,140 195.4,140 195.6,140 195.8,140 196,140 196.2,140 196.4,140 196.6,140 196.7,140 196.9,140 197.1,140 197.3,140 197.5,140 197.7,140 197.9,140 198,140 198.2,140 198.4,140 198.6,140 198.8,140 199,140 199.2,140 199.4,140 199.5,140 199.7,140 199.9,140 200.1,140 200.3,140 200.5,140 200.7,140 200.9,140 201,140 201.2,140 201.4,140 201.6,140 201.8,140 202,140 202.2,140 202.4,140 202.5,140 202.7,140 202.9,140 203.1,140 203.3,140 203.5,140 203.7,140 203.8,140 204,140 204.2,140 204.4,140 204.6,140 204.8,140 205,140 205.2,140 205.3,140 205.5,140 205.7,140 205.9,140 206.1,140 206.3,140 206.5,140 206.7,140 206.8,140 207,140 207.2,140 207.4,140 207.6,140 207.8,140 208,140 208.2,140 208.3,140 208.5,140 208.7,140 208.9,140 209.1,140 209.3,140 209.5,140 209.7,140 209.8,140 210,140 210.2,140 210.4,140 210.6,140 210.8,140 211,140 211.1,140 211.3,140 211.5,140 211.7,140 211.9,140 212.1,140 212.3,140 212.5,140 212.6,140 212.8,140 213,140 213.2,140 213.4,140 213.6,140 213.8,140 214,140 214.1,140 214.3,140 214.5,140 214.7,140 214.9,140 215.1,140 215.3,140 215.5,140 215.6,140 215.8,140 216,140 216.2,140 216.4,140 216.6,140 216.8,140 216.9,140 217.1,140 217.3,140 217.5,140 217.7,140 217.9,140 218.1,140 218.3,140 218.4,140 218.6,140 218.8,140 219,140 219.2,140 219.4,140 219.6,140 219.8,140 219.9,140 220.1,140 220.3,140 220.5,140 220.7,140 220.9,140 221.1,140 221.3,140 221.4,140 221.6,140 221.8,140 222,140 222.2,140 222.4,140 222.6,140 222.8,140 222.9,140 223.1,140 223.3,140 223.5,140 223.7,140 223.9,140 224.1,140 224.2,140 224.4,140 224.6,140 224.8,140 225,140 225.2,140 225.4,140 225.6,140 225.7,140 225.9,140 226.1,140 226.3,140 226.5,140 226.7,140 226.9,140 227.1,140 227.2,140 227.4,140 227.6,140 227.8,140 228,140 228.2,140 228.4,140 228.6,140 228.7,140 228.9,140 229.1,140 229.3,140 229.5,140 229.7,140 229.9,140 230,140 230.2,140 230.4,140 230.6,140 230.8,140 231,140 231.2,140 231.4,140 231.5,140 231.7,140 231.9,140 232.1,140 232.3,140 232.5,140 232.7,140 232.9,140 233,140 233.2,140 233.4,140 233.6,140 233.8,140 234,140 234.2,140 234.4,140 234.5,140 234.7,140 234.9,140 235.1,140 235.3,140 235.5,140 235.7,140 235.8,140 236,140 236.2,140 236.4,140 236.6,140 236.8,140 237,140 237.2,140 237.3,140 237.5,140 237.7,140 237.9,140 238.1,140 238.3,140 238.5,140 238.7,140 238.8,140 239,140 239.2,140 239.4,140 239.6,140 239.8,140 240,140 240.2,140 240.3,140 240.5,140 240.7,140 240.9,140 241.1,140 241.3,140 241.5,140 241.7,140 241.8,140 242,140 242.2,140 242.4,140 242.6,140 242.8,140 243,140 243.1,140 243.3,140 243.5,140 243.7,140 243.9,140 244.1,140 244.3,140 244.5,140 244.6,140 244.8,140 245,140 245.2,140 245.4,140 245.6,140 245.8,140 246,140 246.1,140 246.3,140 246.5,140 246.7,140 246.9,140 247.1,140 247.3,140 247.5,140 247.6,140 247.8,140 248,140 248.2,140 248.4,140 248.6,140 248.8,140 248.9,140 249.1,140 249.3,140 249.5,140 249.7,140 249.9,140 250.1,140 250.3,140 250.4,140 250.6,140 250.8,140 251,140 251.2,140 251.4,140 251.6,140 251.8,140 251.9,140 252.1,140 252.3,140 252.5,140 252.7,140 252.9,140 253.1,140 253.3,140 253.4,140 253.6,140 253.8,140 254,140 254.2,140 254.4,140 254.6,140 254.8,140 254.9,140 255.1,140 255.3,140 255.5,140 255.7,140 255.9,140 256.1,140 256.2,140 256.4,140 256.6,140 256.8,140 257,140 257.2,140 257.4,140 257.6,140 257.7,140 257.9,140 258.1,140 258.3,140 258.5,140 258.7,140 258.9,140 259.1,140 259.2,140 259.4,140 259.6,140 259.8,140 260,140 260.2,140 260.4,140 260.6,140 260.7,140 260.9,140 261.1,140 261.3,140 261.5,140 261.7,140 261.9,140 262,140 262.2,140 262.4,140 262.6,140 262.8,140 263,140 263.2,140 263.4,140 263.5,140 263.7,140 263.9,140 264.1,140 264.3,140 264.5,140 264.7,140 264.9,140 265,140 265.2,140 265.4,140 265.6,140 265.8,140 266,140 266.2,140 266.4,140 266.5,140 266.7,140 266.9,140 267.1,140 267.3,140 267.5,140 267.7,140 267.8,140 268,140 268.2,140 268.4,140 268.6,140 268.8,140 269,140 269.2,140 269.3,140 269.5,140 269.7,140 269.9,140 270.1,140 270.3,140 270.5,140 270.7,140 270.8,140 271,140 271.2,140 271.4,140 271.6,140 271.8,140 272,140 272.2,140 272.3,140 272.5,140 272.7,140 272.9,140 273.1,140 273.3,140 273.5,140 273.7,140 273.8,140 274,140 274.2,140 274.4,140 274.6,140 274.8,140 275,140 275.1,140 275.3,140 275.5,140 275.7,140 275.9,140 276.1,140 276.3,140 276.5,140 276.6,140 276.8,140 277,140 277.2,140 277.4,140 277.6,140 277.8,140 278,140 278.1,140 278.3,140 278.5,140 278.7,140 278.9,140 279.1,140 279.3,140 279.5,140 279.6,140 279.8,140 280,140 280.2,140 280.4,140 280.6,140 280.8,140 280.9,140 281.1,140 281.3,140 281.5,140 281.7,140 281.9,140 282.1,140 282.3,140 282.4,140 282.6,140 282.8,140 283,140 283.2,140 283.4,140 283.6,140 283.8,140 283.9,140 284.1,140 284.3,140 284.5,140 284.7,140 284.9,140 285.1,140 285.3,140 285.4,140 285.6,140 285.8,140 286,140 286.2,140 286.4,140 286.6,140 286.8,140 286.9,140 287.1,140 287.3,140 287.5,140 287.7,140 287.9,140 288.1,140 288.2,140 288.4,140 288.6,140 288.8,140 289,140 289.2,140 289.4,140 289.6,140 289.7,140 289.9,140 290.1,140 290.3,140 290.5,140 290.7,140 290.9,140 291.1,140 291.2,140 291.4,140 291.6,140 291.8,140 292,140 292.2,140 292.4,140 292.6,140 292.7,140 292.9,140 293.1,140 293.3,140 293.5,140 293.7,140 293.9,140 294,140 294.2,140 294.4,140 294.6,140 294.8,140 295,140 295.2,140 295.4,140 295.5,140 295.7,140 295.9,140 296.1,140 296.3,140 296.5,140 296.7,140 296.9,140 297,140 297.2,140 297.4,140 297.6,140 297.8,140 298,140 298.2,140 298.4,140 298.5,140 298.7,140 298.9,140 299.1,140 299.3,140 299.5,140 299.7,140 299.8,140 300,140 300.2,140 300.4,140 300.6,140 300.8,140 301,140 301.2,140 301.3,140 301.5,140 301.7,140 301.9,140 302.1,140 302.3,140 302.5,140 302.7,140 302.8,140 303,140 303.2,140 303.4,140 303.6,140 303.8,140 304,140 304.2,140 304.3,140 304.5,140 304.7,140 304.9,140 305.1,140 305.3,140 305.5,140 305.7,140 305.8,140 306,140 306.2,140 306.4,140 306.6,140 306.8,140 307,140 307.1,140 307.3,140 307.5,140 307.7,140 307.9,140 308.1,140 308.3,140 308.5,140 308.6,140 308.8,140 309,140 309.2,140 309.4,140 309.6,140 309.8,140 310,140 310.1,140 310.3,140 310.5,140 310.7,140 310.9,140 311.1,140 311.3,140 311.5,140 311.6,140 311.8,140 312,141.5 312.2,141.5 312.4,141.5 312.6,141.5 312.8,141.5 312.9,141.5 313.1,141.5 313.3,141.5 313.5,141.5 313.7,141.5 313.9,141.5 314.1,141.5 314.3,141.5 314.4,141.5 314.6,141.5 314.8,141.5 315,141.5 315.2,141.5 315.4,141.5 315.6,141.5 315.8,141.5 315.9,141.5 316.1,141.5 316.3,141.5 316.5,141.5 316.7,141.5 316.9,141.5 317.1,141.5 317.3,141.5 317.4,141.5 317.6,141.5 317.8,141.5 318,141.5 318.2,141.5 318.4,141.5 318.6,141.5 318.7,141.5 318.9,141.5 319.1,141.5 319.3,141.5 319.5,141.5 319.7,141.5 319.9,141.5 320.1,141.5 320.2,141.5 320.4,141.5 320.6,141.5 320.8,141.5 321,141.5 321.2,141.5 321.4,141.5 321.6,141.5 321.7,141.5 321.9,141.5 322.1,141.5 322.3,141.5 322.5,141.5 322.7,141.5 322.9,141.5 323.1,141.5 323.2,141.5 323.4,141.5 323.6,141.5 323.8,141.5 324,141.5 324.2,141.5 324.4,141.5 324.6,141.5 324.7,141.5 324.9,141.5 325.1,141.5 325.3,141.5 325.5,141.5 325.7,141.5 325.9,141.5 326,141.5 326.2,141.5 326.4,141.5 326.6,141.5 326.8,141.5 327,141.5 327.2,141.5 327.4,141.5 327.5,141.5 327.7,141.5 327.9,141.5 328.1,141.5 328.3,141.5 328.5,141.5 328.7,141.5 328.9,141.5 329,141.5 329.2,141.5 329.4,141.5 329.6,141.5 329.8,141.5 330,141.5 330.2,141.5 330.4,141.5 330.5,141.5 330.7,141.5 330.9,141.5 331.1,141.5 331.3,141.5 331.5,141.5 331.7,141.5 331.8,141.5 332,141.5 332.2,141.5 332.4,141.5 332.6,141.5 332.8,141.5 333,141.5 333.2,141.5 333.3,141.5 333.5,141.5 333.7,141.5 333.9,141.5 334.1,141.5 334.3,141.5 334.5,141.5 334.7,141.5 334.8,141.5 335,141.5 335.2,141.5 335.4,141.5 335.6,141.5 335.8,141.5 336,141.5 336.2,141.5 336.3,141.5 336.5,141.5 336.7,141.5 336.9,141.5 337.1,141.5 337.3,141.5 337.5,141.5 337.7,141.5 337.8,141.5 338,141.5 338.2,141.5 338.4,141.5 338.6,141.5 338.8,141.5 339,141.5 339.1,141.5 339.3,141.5 339.5,141.5 339.7,141.5 339.9,141.5 340.1,141.5 340.3,141.5 340.5,141.5 340.6,141.5 340.8,141.5 341,141.5 341.2,141.5 341.4,141.5 341.6,141.5 341.8,141.5 342,141.5 342.1,141.5 342.3,141.5 342.5,141.5 342.7,141.5 342.9,141.5 343.1,141.5 343.3,141.5 343.5,141.5 343.6,141.5 343.8,141.5 344,141.5 344.2,141.5 344.4,141.5 344.6,141.5 344.8,141.5 344.9,141.5 345.1,141.5 345.3,141.5 345.5,141.5 345.7,141.5 345.9,141.5 346.1,141.5 346.3,141.5 346.4,141.5 346.6,141.5 346.8,141.5 347,141.5 347.2,141.5 347.4,141.5 347.6,141.5 347.8,141.5 347.9,141.5 348.1,141.5 348.3,141.5 348.5,141.5 348.7,141.5 348.9,141.5 349.1,141.5 349.3,141.5 349.4,141.5 349.6,141.5 349.8,141.5 350,141.5 350.2,141.5 350.4,141.5 350.6,141.5 350.7,141.5 350.9,141.5 351.1,141.5 351.3,141.5 351.5,141.5 351.7,141.5 351.9,141.5 352.1,141.5 352.2,141.5 352.4,141.5 352.6,141.5 352.8,141.5 353,141.5 353.2,141.5 353.4,141.5 353.6,141.5 353.7,141.5 353.9,141.5 354.1,141.5 354.3,141.5 354.5,141.5 354.7,141.5 354.9,141.5 355.1,141.5 355.2,141.5 355.4,141.5 355.6,141.5 355.8,141.5 356,141.5 356.2,141.5 356.4,141.5 356.6,141.5 356.7,141.5 356.9,141.5 357.1,141.6 357.3,141.5 357.5,141.5 357.7,141.5 357.9,141.5 358,141.5 358.2,141.5 358.4,141.5 358.6,141.5 358.8,141.5 359,141.6 359.2,141.5 359.4,141.5 359.5,141.5 359.7,141.5 359.9,141.5 360.1,141.5 360.3,141.5 360.5,141.5 360.7,141.5 360.9,141.5 361,141.5 361.2,141.5 361.4,141.5 361.6,141.5 361.8,141.5 362,141.5 362.2,141.5 362.4,141.5 362.5,141.5 362.7,141.5 362.9,141.5 363.1,141.5 363.3,141.5 363.5,141.5 363.7,141.5 363.8,141.5 364,141.5 364.2,141.5 364.4,141.5 364.6,141.5 364.8,141.5 365,141.5 365.2,141.5 365.3,141.5 365.5,141.5 365.7,141.5 365.9,141.5 366.1,141.5 366.3,141.5 366.5,141.5 366.7,141.5 366.8,141.5 367,141.5 367.2,141.5 367.4,141.5 367.6,141.5 367.8,141.5 368,141.5 368.2,141.5 368.3,141.5 368.5,141.6 368.7,141.5 368.9,141.5 369.1,141.5 369.3,141.5 369.5,141.5 369.7,141.5 369.8,141.6 370,141.5 370.2,141.5 370.4,141.5 370.6,141.5 370.8,141.5 371,141.5 371.1,141.6 371.3,141.5 371.5,141.6 371.7,141.5 371.9,141.5 372.1,141.5 372.3,141.5 372.5,141.5 372.6,141.5 372.8,141.5 373,141.5 373.2,141.5 373.4,141.5 373.6,141.5 373.8,141.5 374,141.5 374.1,141.5 374.3,141.5 374.5,141.5 374.7,141.5 374.9,141.5 375.1,141.6 375.3,141.5 375.5,141.5 375.6,141.5 375.8,141.5 376,141.5 376.2,141.5 376.4,141.5 376.6,141.5 376.8,141.5 376.9,141.5 377.1,141.5 377.3,141.5 377.5,141.6 377.7,141.6 377.9,141.5 378.1,141.5 378.3,141.5 378.4,141.5 378.6,141.5 378.8,141.5 379,141.5 379.2,141.6 379.4,141.5 379.6,141.5 379.8,141.6 379.9,141.5 380.1,141.5 380.3,141.5 380.5,141.6 380.7,141.5 380.9,141.5 381.1,141.5 381.3,141.5 381.4,141.5 381.6,141.5 381.8,141.6 382,141.5 382.2,141.5 382.4,141.6 382.6,141.5 382.7,141.6 382.9,141.5 383.1,141.5 383.3,141.5 383.5,141.5 383.7,141.5 383.9,141.5 384.1,141.5 384.2,141.6 384.4,141.5 384.6,141.5 384.8,141.5 385,141.5 385.2,141.5 385.4,141.5 385.6,141.5 385.7,141.5 385.9,141.5 386.1,141.6 386.3,141.5 386.5,141.5 386.7,141.5 386.9,141.5 387.1,141.6 387.2,141.5 387.4,141.5 387.6,141.6 387.8,141.5 388,141.5 388.2,141.5 388.4,141.5 388.6,141.5 388.7,141.5 388.9,141.5 389.1,141.5 389.3,141.5 389.5,141.5 389.7,141.5 389.9,141.5 390,141.5 390.2,141.5 390.4,141.6 390.6,141.5 390.8,141.6 391,141.5 391.2,141.5 391.4,141.5 391.5,141.5 391.7,141.5 391.9,141.5 392.1,141.5 392.3,141.5 392.5,141.6 392.7,141.5 392.9,141.6 393,141.5 393.2,141.5 393.4,141.5 393.6,141.5 393.8,141.6 394,141.5 394.2,141.5 394.4,141.5 394.5,141.5 394.7,141.5 394.9,141.5 395.1,141.5 395.3,141.5 395.5,141.6 395.7,141.5 395.8,141.5 396,141.5 396.2,141.5 396.4,141.5 396.6,141.5 396.8,141.6 397,141.6 397.2,141.6 397.3,141.6 397.5,141.5 397.7,141.5 397.9,141.6 398.1,141.5 398.3,141.6 398.5,141.5 398.7,141.5 398.8,141.5 399,141.5 399.2,141.5 399.4,141.5 399.6,141.5 399.8,141.5 400,141.5 400.2,141.5 400.3,141.5 400.5,141.5 400.7,141.5 400.9,141.6 401.1,141.5 401.3,141.5 401.5,141.5 401.6,141.6 401.8,141.6 402,141.5 402.2,141.6 402.4,141.5 402.6,141.5 402.8,141.5 403,141.5 403.1,141.5 403.3,141.5 403.5,141.5 403.7,141.5 403.9,141.5 404.1,141.5 404.3,141.5 404.5,141.5 404.6,141.5 404.8,141.5 405,141.6 405.2,141.5 405.4,141.5 405.6,141.5 405.8,141.5 406,141.5 406.1,141.5 406.3,141.5 406.5,141.5 406.7,141.5 406.9,141.5 407.1,141.5 407.3,141.5 407.5,141.5 407.6,141.5 407.8,141.5 408,141.5 408.2,141.5 408.4,141.5 408.6,141.5 408.8,141.5 408.9,141.5 409.1,141.5 409.3,141.5 409.5,141.5 409.7,141.5 409.9,141.6 410.1,141.5 410.3,141.5 410.4,141.5 410.6,141.5 410.8,141.6 411,141.5 411.2,141.5 411.4,141.6 411.6,141.5 411.8,141.5 411.9,141.5 412.1,141.5 412.3,141.5 412.5,141.5 412.7,141.5 412.9,141.5 413.1,141.5 413.3,141.5 413.4,141.5 413.6,141.5 413.8,141.5 414,141.5 414.2,141.5 414.4,141.5 414.6,141.5 414.7,141.5 414.9,141.5 415.1,141.5 415.3,141.5 415.5,141.6 415.7,141.5 415.9,141.5 416.1,141.5 416.2,141.6 416.4,141.5 416.6,141.5 416.8,141.5 417,141.5 417.2,141.5 417.4,141.5 417.6,141.5 417.7,141.5 417.9,141.6 418.1,141.6 418.3,141.5 418.5,141.5 418.7,141.5 418.9,141.5 419.1,141.5 419.2,141.5 419.4,141.5 419.6,141.5 419.8,141.5 420,141.5 420.2,141.5 420.4,141.5 420.6,141.5 420.7,141.5 420.9,141.5 421.1,141.6 421.3,141.5 421.5,141.5 421.7,141.6 421.9,141.6 422,141.5 422.2,141.6 422.4,141.5 422.6,141.5 422.8,141.5 423,141.5 423.2,141.5 423.4,141.5 423.5,141.5 423.7,141.6 423.9,141.5 424.1,141.5 424.3,141.5 424.5,141.5 424.7,141.5 424.9,141.5 425,141.5 425.2,141.5 425.4,141.5 425.6,141.5 425.8,141.5 426,141.5 426.2,141.5 426.4,141.5 426.5,141.5 426.7,141.5 426.9,141.5 427.1,141.5 427.3,141.5 427.5,141.5 427.7,141.5 427.8,141.6 428,141.5 428.2,141.5 428.4,141.5 428.6,141.5 428.8,141.5 429,141.5 429.2,141.5 429.3,141.5 429.5,141.5 429.7,141.5 429.9,141.5 430.1,141.5 430.3,141.6 430.5,141.6 430.7,141.5 430.8,141.5 431,141.5 431.2,141.5 431.4,141.5 431.6,141.5 431.8,141.5 432,141.5 432.2,141.5 432.3,141.5 432.5,141.5 432.7,141.5 432.9,141.5 433.1,141.5 433.3,141.5 433.5,141.5 433.6,141.6 433.8,141.6 434,141.5 434.2,141.6 434.4,141.5 434.6,141.5 434.8,141.5 435,141.5 435.1,141.5 435.3,141.6 435.5,141.5 435.7,141.5 435.9,141.5 436.1,141.5 436.3,141.5 436.5,141.5 436.6,141.5 436.8,141.5 437,141.5 437.2,141.5 437.4,141.5 437.6,141.5 437.8,141.5 438,141.5 438.1,141.5 438.3,141.5 438.5,141.5 438.7,141.5 438.9,141.5 439.1,141.5 439.3,141.5 439.5,141.5 439.6,141.5 439.8,141.5 440,141.5 440.2,141.5 440.4,141.5 440.6,141.5 440.8,141.5 440.9,141.5 441.1,141.5 441.3,141.5 441.5,141.5 441.7,141.5 441.9,141.5 442.1,141.5 442.3,141.5 442.4,141.5 442.6,141.5 442.8,141.5 443,141.5 443.2,141.5 443.4,141.5 443.6,141.5 443.8,141.5 443.9,141.5 444.1,141.5 444.3,141.5 444.5,141.5 444.7,141.5 444.9,141.5 445.1,141.5 445.3,141.5 445.4,141.5 445.6,141.5 445.8,141.5 446,141.5 446.2,141.5 446.4,141.5 446.6,141.5 446.7,141.5 446.9,141.5 447.1,141.5 447.3,141.5 447.5,141.5 447.7,141.5 447.9,141.5 448.1,141.5 448.2,141.5 448.4,141.5 448.6,141.5 448.8,141.5 449,141.6 449.2,141.5 449.4,141.5 449.6,141.5 449.7,141.5 449.9,141.5 450.1,141.5 450.3,141.5 450.5,141.5 450.7,141.5 450.9,141.5 451.1,141.5 451.2,141.5 451.4,141.5 451.6,141.5 451.8,141.5 452,141.5 452.2,141.5 452.4,141.5 452.6,141.5 452.7,141.5 452.9,141.5 453.1,141.5 453.3,141.5 453.5,141.5 453.7,141.5 453.9,141.5 454,141.5 454.2,141.5 454.4,141.5 454.6,141.5 454.8,141.5 455,141.5 455.2,141.5 455.4,141.5 455.5,141.5 455.7,141.5 455.9,141.5 456.1,141.5 456.3,141.5 456.5,141.5 456.7,141.5 456.9,141.5 457,141.5 457.2,141.5 457.4,141.5 457.6,141.5 457.8,141.5 458,141.5 458.2,141.5 458.4,141.5 458.5,141.5 458.7,141.5 458.9,141.5 459.1,141.5 459.3,141.5 459.5,141.5 459.7,141.5 459.8,141.5 460,141.5 460.2,141.5 460.4,141.5 460.6,141.5 460.8,141.5 461,141.5 461.2,141.5 461.3,141.5 461.5,141.5 461.7,141.5 461.9,141.5 462.1,141.5 462.3,141.5 462.5,141.5 462.7,141.5 462.8,141.5 463,141.5 463.2,141.5 463.4,141.5 463.6,141.5 463.8,141.5 464,141.5 464.2,141.5 464.3,141.5 464.5,141.5 464.7,141.5 464.9,141.5 465.1,141.5 465.3,141.5 465.5,141.5 465.6,141.5 465.8,141.5 466,141.5 466.2,141.5 466.4,141.5 466.6,141.5 466.8,141.5 467,141.5 467.1,141.5 467.3,141.5 467.5,141.5 467.7,141.5 467.9,141.5 468.1,141.5 468.3,141.5 468.5,141.5 468.6,141.5 468.8,141.5 469,141.5 469.2,141.5 469.4,141.5 469.6,141.5 469.8,141.5 470,141.5 470.1,141.5 470.3,141.5 470.5,141.5 470.7,141.5 470.9,141.5 471.1,141.5 471.3,141.5 471.5,141.5 471.6,141.5 471.8,141.5 472,141.5 472.2,141.5 472.4,141.5 472.6,141.5 472.8,141.5 472.9,141.5 473.1,141.5 473.3,141.5 473.5,141.5 473.7,141.5 473.9,141.5 474.1,141.5 474.3,141.5 474.4,141.5 474.6,141.5 474.8,141.5 475,141.5 475.2,141.5 475.4,141.5 475.6,141.5 475.8,141.5 475.9,141.5 476.1,141.5 476.3,141.5 476.5,141.5 476.7,141.5 476.9,141.5 477.1,141.5 477.3,141.5 477.4,141.5 477.6,141.5 477.8,141.5 478,141.5 478.2,141.5 478.4,141.5 478.6,141.5 478.7,141.5 478.9,141.5 479.1,141.5 479.3,141.5 479.5,141.5 479.7,141.5 479.9,141.5 480.1,141.5 480.2,141.5 480.4,141.5 480.6,141.5 480.8,141.5 481,141.5 481.2,141.5 481.4,141.5 481.6,141.5 481.7,141.5 481.9,141.5 482.1,141.5 482.3,141.5 482.5,141.5 482.7,141.5 482.9,141.5 483.1,141.5 483.2,141.5 483.4,141.5 483.6,141.5 483.8,141.5 484,141.5 484.2,141.5 484.4,141.5 484.6,141.5 484.7,141.5 484.9,141.5 485.1,141.5 485.3,141.5 485.5,141.5 485.7,141.5 485.9,141.5 486,141.5 486.2,141.5 486.4,141.5 486.6,141.5 486.8,141.5 487,141.5 487.2,141.5 487.4,141.5 487.5,141.5 487.7,141.5 487.9,141.5 488.1,141.5 488.3,141.5 488.5,141.5 488.7,141.5 488.9,141.5 489,141.5 489.2,141.5 489.4,141.5 489.6,141.5 489.8,141.5 490,141.5 490.2,141.5 490.4,141.5 490.5,141.5 490.7,141.5 490.9,141.5 491.1,141.5 491.3,141.5 491.5,141.5 491.7,141.5 491.8,141.5 492,141.5 492.2,141.5 492.4,141.5 492.6,141.5 492.8,141.5 493,141.5 493.2,141.5 493.3,141.5 493.5,141.5 493.7,141.5 493.9,141.5 494.1,141.5 494.3,141.5 494.5,141.5 494.7,141.5 494.8,141.5 495,141.5 495.2,141.5 495.4,141.5 495.6,141.5 495.8,141.5 496,141.5 496.2,141.5 496.3,141.5 496.5,141.5 496.7,141.5 496.9,141.5 497.1,141.5 497.3,141.5 497.5,141.5 497.6,141.5 497.8,141.5 498,141.5 498.2,141.5 498.4,141.5 498.6,141.5 498.8,141.5 499,141.5 499.1,141.5 499.3,141.5 499.5,141.5 499.7,141.5 499.9,141.5 500.1,141.5 500.3,141.5 500.5,141.5 500.6,141.5 500.8,141.5 501,141.5 501.2,141.5 501.4,141.5 501.6,141.5 501.8,141.5 502,141.5 502.1,141.5 502.3,141.5 502.5,141.5 502.7,141.5 502.9,141.5 503.1,141.5 503.3,141.5 503.5,141.5 503.6,141.5 503.8,141.5 504,141.5 504.2,141.5 504.4,141.5 504.6,141.5 504.8,141.5 504.9,141.5 505.1,141.5 505.3,141.5 505.5,141.5 505.7,141.5 505.9,141.5 506.1,141.5 506.3,141.5 506.4,141.5 506.6,141.5 506.8,141.5 507,141.5 507.2,141.5 507.4,141.5 507.6,141.5 507.8,141.5 507.9,141.5 508.1,141.5 508.3,141.5 508.5,141.5 508.7,141.5 508.9,141.5 509.1,141.5 509.3,141.5 509.4,141.5 509.6,141.5 509.8,141.5 510,141.5 510.2,141.5 510.4,141.5 510.6,141.5 510.7,141.5 510.9,141.5 511.1,141.5 511.3,141.5 511.5,141.5 511.7,141.5 511.9,141.5 512.1,141.5 512.2,141.5 512.4,141.5 512.6,141.5 512.8,141.5 513,141.5 513.2,141.5 513.4,141.5 513.6,424.1 513.7,424.1 513.9,424.1 514.1,424.1 514.3,424.1 514.5,424.1 514.7,424.1 514.9,424.1 515.1,424.1 515.2,424.1 515.4,424.1 515.6,424.1 515.8,424.1 516,424.1 516.2,424.1 516.4,424.1 516.5,424.1 516.7,424.1 516.9,424.1 517.1,424.1 517.3,424.1 517.5,424.1 517.7,424.1 517.9,424.1 518,424.1 518.2,424.1 518.4,424.1 518.6,424.1 518.8,424.1 519,424.1 519.2,424.1 519.4,424.1 519.5,424.1 519.7,424.1 519.9,424.1 520.1,424.1 520.3,424.1 520.5,424.1 520.7,424.1 520.9,424.1 521,424.1 521.2,424.1 521.4,424.1 521.6,424.1 521.8,424.1 522,424.1 522.2,424.1 522.4,424.1 522.5,424.1 522.7,424.1 522.9,424.1 523.1,424.1 523.3,424.1 523.5,424.1 523.7,424.1 523.8,424.1 524,424.1 524.2,424.1 524.4,424.1 524.6,424.1 524.8,424.1 525,424.1 525.2,424.1 525.3,424.1 525.5,424.1 525.7,424.1 525.9,424.1 526.1,424.1 526.3,424.1 526.5,424.1 526.7,424.1 526.8,424.1 527,424.1 527.2,424.1 527.4,424.1 527.6,424.1 527.8,424.1 528,424.1 528.2,424.1 528.3,424.1 528.5,424.1 528.7,424.1 528.9,424.1 529.1,424.1 529.3,424.1 529.5,424.1 529.6,424.1 529.8,424.1 530,424.1 530.2,424.1 530.4,424.1 530.6,424.1 530.8,424.1 531,424.1 531.1,424.1 531.3,424.1 531.5,424.1 531.7,424.1 531.9,424.1 532.1,424.1 532.3,424.1 532.5,424.1 532.6,424.1 532.8,424.1 533,424.1 533.2,424.1 533.4,424.1 533.6,424.1 533.8,424.1 534,424.1 534.1,424.1 534.3,424.1 534.5,424.1 534.7,424.1 534.9,424.1 535.1,424.1 535.3,424.1 535.5,424.1 535.6,424.1 535.8,424.1 536,424.1 536.2,424.1 536.4,424.1 536.6,424.1 536.8,424.1 536.9,424.1 537.1,424.1 537.3,424.1 537.5,424.1 537.7,424.1 537.9,424.1 538.1,424.1 538.3,424.1 538.4,424.1 538.6,424.1 538.8,424.1 539,424.1 539.2,424.1 539.4,424.1 539.6,424.1 539.8,424.1 539.9,424.1 540.1,424.1 540.3,424.1 540.5,424.1 540.7,424.1 540.9,424.1 541.1,424.1 541.3,424.1 541.4,424.1 541.6,424.1 541.8,424.1 542,424.1 542.2,424.1 542.4,424.1 542.6,424.1 542.7,424.1 542.9,424.1 543.1,424.1 543.3,424.1 543.5,424.1 543.7,424.1 543.9,424.1 544.1,424.1 544.2,424.1 544.4,424.1 544.6,424.1 544.8,424.1 545,424.1 545.2,424.1 545.4,424.1 545.6,424.1 545.7,424.1 545.9,424.1 546.1,424.1 546.3,424.1 546.5,424.1 546.7,424.1 546.9,424.1 547.1,424.1 547.2,424.1 547.4,424.1 547.6,424.1 547.8,424.1 548,424.1 548.2,424.1 548.4,424.1 548.5,424.1 548.7,424.1 548.9,424.1 549.1,424.1 549.3,424.1 549.5,424.1 549.7,424.1 549.9,424.1 550,424.1 550.2,424.1 550.4,424.1 550.6,424.1 550.8,424.1 551,424.1 551.2,424.1 551.4,424.1 551.5,424.1 551.7,424.1 551.9,424.1 552.1,424.1 552.3,424.1 552.5,424.1 552.7,424.1 552.9,424.1 553,424.1 553.2,424.1 553.4,424.1 553.6,424.1 553.8,424.1 554,424.1 554.2,424.1 554.4,424.1 554.5,424.1 554.7,424.1 554.9,424.1 555.1,424.1 555.3,424.1 555.5,424.1 555.7,424.1 555.8,424.1 556,424.1 556.2,424.1 556.4,424.1 556.6,424.1 556.8,424.1 557,424.1 557.2,424.1 557.3,424.1 557.5,424.1 557.7,424.1 557.9,424.1 558.1,424.1 558.3,424.1 558.5,424.1 558.7,424.1 558.8,424.1 559,424.1 559.2,424.1 559.4,424.1 559.6,424.1 559.8,424.1 560,424.1 560.2,424.1 560.3,424.1 560.5,424.1 560.7,424.1 560.9,424.1 561.1,424.1 561.3,424.1 561.5,424.1 561.6,424.1 561.8,424.1 562,424.1 562.2,424.1 562.4,424.1 562.6,424.1 562.8,424.1 563,424.1 563.1,424.1 563.3,424.1 563.5,424.1 563.7,424.1 563.9,424.1 564.1,424.1 564.3,424.1 564.5,424.1 564.6,424.1 564.8,424.1 565,424.1 565.2,424.1 565.4,424.1 565.6,424.1 565.8,424.1 566,424.1 566.1,424.1 566.3,424.1 566.5,424.1 566.7,424.1 566.9,424.1 567.1,424.1 567.3,424.1 567.5,424.1 567.6,424.1 567.8,424.1 568,424.1 568.2,424.1 568.4,424.1 568.6,424.1 568.8,424.1 568.9,424.1 569.1,424.1 569.3,424.1 569.5,424.1 569.7,424.1 569.9,424.1 570.1,424.1 570.3,424.1 570.4,424.1 570.6,424.1 570.8,424.1 571,424.1 571.2,424.1 571.4,424.1 571.6,424.1 571.8,424.1 571.9,424.1 572.1,424.1 572.3,424.1 572.5,424.1 572.7,424.1 572.9,424.1 573.1,424.1 573.3,424.1 573.4,424.1 573.6,424.1 573.8,424.1 574,424.1 574.2,424.1 574.4,424.1 574.6,424.1 574.7,424.1 574.9,424.1 575.1,424.1 575.3,424.1 575.5,424.1 575.7,424.1 575.9,424.1 576.1,424.1 576.2,424.1 576.4,424.1 576.6,424.1 576.8,424.1 577,424.1 577.2,424.1 577.4,424.1 577.6,424.1 577.7,424.1 577.9,424.1 578.1,424.1 578.3,424.1 578.5,424.1 578.7,424.1 578.9,424.1 579.1,424.1 579.2,424.1 579.4,424.1 579.6,424.1 579.8,424.1 580,424.1 580.2,424.1 580.4,424.1 580.5,424.1 580.7,424.1 580.9,424.1 581.1,424.1 581.3,424.1 581.5,424.1 581.7,424.1 581.9,424.1 582,424.1 582.2,424.1 582.4,424.1 582.6,424.1 582.8,424.1 583,424.1 583.2,424.1 583.4,424.1 583.5,424.1 583.7,424.1 583.9,424.1 584.1,424.1 584.3,424.1 584.5,424.1 584.7,424.1 584.9,424.1 585,424.1 585.2,424.1 585.4,424.1 585.6,424.1 585.8,424.1 586,424.1 586.2,424.1 586.4,424.1 586.5,424.1 586.7,424.1 586.9,424.1 587.1,424.1 587.3,424.1 587.5,424.1 587.7,424.1 587.8,424.1 588,424.1 588.2,424.1 588.4,424.1 588.6,424.1 588.8,424.1 589,424.1 589.2,424.1 589.3,424.1 589.5,424.1 589.7,424.1 589.9,424.1 590.1,424.1 590.3,424.1 590.5,424.1 590.7,424.1 590.8,424.1 591,424.1 591.2,424.1 591.4,424.1 591.6,424.1 591.8,424.1 592,424.1 592.2,424.1 592.3,424.1 592.5,424.1 592.7,424.1 592.9,424.1 593.1,424.1 593.3,424.1 593.5,424.1 593.6,424.1 593.8,424.1 594,424.1 594.2,424.1 594.4,424.1 594.6,424.1 594.8,424.1 595,424.1 595.1,424.1 595.3,424.1 595.5,424.1 595.7,424.1 595.9,424.1 596.1,424.1 596.3,424.1 596.5,424.1 596.6,424.1 596.8,424.1 597,424.1 597.2,424.1 597.4,424.1 597.6,424.1 597.8,424.1 598,424.1 598.1,424.1 598.3,424.1 598.5,424.1 598.7,424.1 598.9,424.1 599.1,424.1 599.3,424.1 599.4,424.1 599.6,424.1 599.8,424.1 600,424.1 600.2,424.1 600.4,424.1 600.6,424.1 600.8,424.1 600.9,424.1 601.1,424.1 601.3,424.1 601.5,424.1 601.7,424.1 601.9,424.1 602.1,424.1 602.3,424.1 602.4,424.1 602.6,424.1 602.8,424.1 603,424.1 603.2,424.1 603.4,424.1 603.6,424.1 603.8,424.1 603.9,424.1 604.1,424.1 604.3,424.1 604.5,424.1 604.7,424.1 604.9,424.1 605.1,424.1 605.3,424.1 605.4,424.1 605.6,424.1 605.8,424.1 606,424.1 606.2,424.1 606.4,424.1 606.6,424.1 606.7,424.1 606.9,424.1 607.1,424.1 607.3,424.1 607.5,424.1 607.7,424.1 607.9,424.1 608.1,424.1 608.2,424.1 608.4,424.1 608.6,424.1 608.8,424.1 609,424.1 609.2,424.1 609.4,424.1 609.6,424.1 609.7,424.1 609.9,424.1 610.1,424.1 610.3,424.1 610.5,424.1 610.7,424.1 610.9,424.1 611.1,424.1 611.2,424.1 611.4,424.1 611.6,424.1 611.8,424.1 612,424.1 612.2,424.1 612.4,424.1 612.5,424.1 612.7,424.1 612.9,424.1 613.1,424.1 613.3,424.1 613.5,424.1 613.7,424.1 613.9,424.1 614,424.1 614.2,424.1 614.4,424.1 614.6,424.1 614.8,424.1 615,424.1 615.2,424.1 615.4,424.1 615.5,424.1 615.7,424.1 615.9,424.1 616.1,424.1 616.3,424.1 616.5,424.1 616.7,424.1 616.9,424.1 617,424.1 617.2,424.1 617.4,424.1 617.6,424.1 617.8,424.1 618,424.1 618.2,424.1 618.4,43.9 618.5,43.9 618.7,43.9 618.9,43.9 619.1,43.9 619.3,43.9 619.5,43.9 619.7,43.9 619.8,43.9 620,43.9 620.2,43.9 620.4,43.9 620.6,43.9 620.8,43.9 621,43.9 621.2,43.9 621.3,43.9 621.5,43.9 621.7,43.9 621.9,43.9 622.1,43.9 622.3,43.9 622.5,43.9 622.7,43.9 622.8,43.9 623,43.9 623.2,43.9 623.4,43.9 623.6,43.9 623.8,43.9 624,43.9 624.2,43.9 624.3,43.9 624.5,43.9 624.7,43.9 624.9,43.9 " />
</g>

<g fill="none" stroke="#000000" stroke-opacity="1" stroke-width="1" stroke-linecap="square" stroke-linejoin="bevel" transform="matrix(1.00313,0,0,1.00313,0,0)"
font-family=".Helvetica Neue DeskInterface" font-size="13" font-weight="400" font-style="normal" 
>
</g>

<g fill="none" stroke="#000000" stroke-opacity="1" stroke-width="1" stroke-linecap="square" stroke-linejoin="bevel" transform="matrix(1.00313,0,0,1.00313,0,0)"
font-family=".Helvetica Neue DeskInterface" font-size="13" font-weight="400" font-style="normal" 
>
</g>

<g fill="none" stroke="#000000" stroke-opacity="1" stroke-width="1" stroke-linecap="round" stroke-linejoin="round" transform="matrix(1.00313,0,0,1.00313,0,0)"
font-family=".Helvetica Neue DeskInterface" font-size="13" font-weight="400" font-style="normal" 
>
<polyline fill="none" vector-effect="none" points="63.5,438.5 67.5,438.5 " />
<polyline fill="none" vector-effect="none" points="624.5,438.5 620.5,438.5 " />
</g>

<g fill="none" stroke="#000000" stroke-opacity="1" stroke-width="1" stroke-linecap="square" stroke-linejoin="bevel" transform="matrix(1.00313,0,0,1.00313,0,0)"
font-family=".Helvetica Neue DeskInterface" font-size="13" font-weight="400" font-style="normal" 
>
</g>

<g fill="none" stroke="#000000" stroke-opacity="1" stroke-width="1" stroke-linecap="square" stroke-linejoin="bevel" transform="matrix(1.00313,0,0,1.00313,17.4606,442.778)"
font-family=".Helvetica Neue DeskInterface" font-size="13" font-weight="400" font-style="normal" 
>
</g>

<g fill="none" stroke="#000000" stroke-opacity="1" stroke-width="1" stroke-linecap="square" stroke-linejoin="bevel" transform="matrix(1.00313,0,0,1.00313,17.4606,442.778)"
font-family=".Helvetica Neue DeskInterface" font-size="13" font-weight="400" font-style="normal" 
>
</g>

<g fill="none" stroke="#000000" stroke-opacity="1" stroke-width="1" stroke-linecap="square" stroke-linejoin="bevel" transform="matrix(1.00313,0,0,1.00313,17.4606,442.778)"
font-family=".Helvetica Neue DeskInterface" font-size="13" font-weight="400" font-style="normal" 
>
</g>

<g fill="none" stroke="#000000" stroke-opacity="1" stroke-width="1" stroke-linecap="square" stroke-linejoin="bevel" transform="matrix(1.00313,0,0,1.00313,17.4606,442.778)"
font-family=".Helvetica Neue DeskInterface" font-size="13" font-weight="400" font-style="normal" 
>
</g>

<g fill="none" stroke="#000000" stroke-opacity="1" stroke-width="1" stroke-linecap="square" stroke-linejoin="bevel" transform="matrix(1.00313,0,0,1.00313,17.4606,442.778)"
font-family=".Helvetica Neue DeskInterface" font-size="13" font-weight="400" font-style="normal" 
>
</g>

<g fill="none" stroke="#000000" stroke-opacity="1" stroke-width="1" stroke-linecap="square" stroke-linejoin="bevel" transform="matrix(1.00313,0,0,1.00313,17.4606,442.778)"
font-family="Sans" font-size="9" font-weight="400" font-style="normal" 
>
<text fill="#000000" fill-opacity="1" stroke="none" xml:space="preserve" x="0" y="0" font-family="Sans" font-size="9" font-weight="400" font-style="normal" 
 >0.258002</text>
</g>

<g fill="none" stroke="#000000" stroke-opacity="1" stroke-width="1" stroke-linecap="square" stroke-linejoin="bevel" transform="matrix(1.00313,0,0,1.00313,17.4606,442.778)"
font-family=".Helvetica Neue DeskInterface" font-size="13" font-weight="400" font-style="normal" 
>
</g>

<g fill="none" stroke="#000000" stroke-opacity="1" stroke-width="1" stroke-linecap="square" stroke-linejoin="bevel" transform="matrix(1.00313,0,0,1.00313,0,0)"
font-family=".Helvetica Neue DeskInterface" font-size="13" font-weight="400" font-style="normal" 
>
</g>

<g fill="none" stroke="#000000" stroke-opacity="1" stroke-width="1" stroke-linecap="round" stroke-linejoin="round" transform="matrix(1.00313,0,0,1.00313,0,0)"
font-family=".Helvetica Neue DeskInterface" font-size="13" font-weight="400" font-style="normal" 
>
<polyline fill="none" vector-effect="none" points="63.5,367.5 67.5,367.5 " />
<polyline fill="none" vector-effect="none" points="624.5,367.5 620.5,367.5 " />
</g>

<g fill="none" stroke="#000000" stroke-opacity="1" stroke-width="1" stroke-linecap="square" stroke-linejoin="bevel" transform="matrix(1.00313,0,0,1.00313,0,0)"
font-family=".Helvetica Neue DeskInterface" font-size="13" font-weight="400" font-style="normal" 
>
</g>

<g fill="none" stroke="#000000" stroke-opacity="1" stroke-width="1" stroke-linecap="square" stroke-linejoin="bevel" transform="matrix(1.00313,0,0,1.00313,17.4606,372.559)"
font-family=".Helvetica Neue DeskInterface" font-size="13" font-weight="400" font-style="normal" 
>
</g>

<g fill="none" stroke="#000000" stroke-opacity="1" stroke-width="1" stroke-linecap="square" stroke-linejoin="bevel" transform="matrix(1.00313,0,0,1.00313,17.4606,372.559)"
font-family=".Helvetica Neue DeskInterface" font-size="13" font-weight="400" font-style="normal" 
>
</g>

<g fill="none" stroke="#000000" stroke-opacity="1" stroke-width="1" stroke-linecap="square" stroke-linejoin="bevel" transform="matrix(1.00313,0,0,1.00313,17.4606,372.559)"
font-family=".Helvetica Neue DeskInterface" font-size="13" font-weight="400" font-style="normal" 
>
</g>

<g fill="none" stroke="#000000" stroke-opacity="1" stroke-width="1" stroke-linecap="square" stroke-linejoin="bevel" transform="matrix(1.00313,0,0,1.00313,17.4606,372.559)"
font-family=".Helvetica Neue DeskInterface" font-size="13" font-weight="400" font-style="normal" 
>
</g>

<g fill="none" stroke="#000000" stroke-opacity="1" stroke-width="1" stroke-linecap="square" stroke-linejoin="bevel" transform="matrix(1.00313,0,0,1.00313,17.4606,372.559)"
font-family=".Helvetica Neue DeskInterface" font-size="13" font-weight="400" font-style="normal" 
>
</g>

<g fill="none" stroke="#000000" stroke-opacity="1" stroke-width="1" stroke-linecap="square" stroke-linejoin="bevel" transform="matrix(1.00313,0,0,1.00313,17.4606,372.559)"
font-family="Sans" font-size="9" font-weight="400" font-style="normal" 
>
<text fill="#000000" fill-opacity="1" stroke="none" xml:space="preserve" x="0" y="0" font-family="Sans" font-size="9" font-weight="400" font-style="normal" 
 >0.258002</text>
</g>

<g fill="none" stroke="#000000" stroke-opacity="1" stroke-width="1" stroke-linecap="square" stroke-linejoin="bevel" transform="matrix(1.00313,0,0,1.00313,17.4606,372.559)"
font-family=".Helvetica Neue DeskInterface" font-size="13" font-weight="400" font-style="normal" 
>
</g>

<g fill="none" stroke="#000000" stroke-opacity="1" stroke-width="1" stroke-linecap="square" stroke-linejoin="bevel" transform="matrix(1.00313,0,0,1.00313,0,0)"
font-family=".Helvetica Neue DeskInterface" font-size="13" font-weight="400" font-style="normal" 
>
</g>

<g fill="none" stroke="#000000" stroke-opacity="1" stroke-width="1" stroke-linecap="round" stroke-linejoin="round" transform="matrix(1.00313,0,0,1.00313,0,0)"
font-family=".Helvetica Neue DeskInterface" font-size="13" font-weight="400" font-style="normal" 
>
<polyline fill="none" vector-effect="none" points="63.5,297.5 67.5,297.5 " />
<polyline fill="none" vector-effect="none" points="624.5,297.5 620.5,297.5 " />
</g>

<g fill="none" stroke="#000000" stroke-opacity="1" stroke-width="1" stroke-linecap="square" stroke-linejoin="bevel" transform="matrix(1.00313,0,0,1.00313,0,0)"
font-family=".Helvetica Neue DeskInterface" font-size="13" font-weight="400" font-style="normal" 
>
</g>

<g fill="none" stroke="#000000" stroke-opacity="1" stroke-width="1" stroke-linecap="square" stroke-linejoin="bevel" transform="matrix(1.00313,0,0,1.00313,17.4606,302.34)"
font-family=".Helvetica Neue DeskInterface" font-size="13" font-weight="400" font-style="normal" 
>
</g>

<g fill="none" stroke="#000000" stroke-opacity="1" stroke-width="1" stroke-linecap="square" stroke-linejoin="bevel" transform="matrix(1.00313,0,0,1.00313,17.4606,302.34)"
font-family=".Helvetica Neue DeskInterface" font-size="13" font-weight="400" font-style="normal" 
>
</g>

<g fill="none" stroke="#000000" stroke-opacity="1" stroke-width="1" stroke-linecap="square" stroke-linejoin="bevel" transform="matrix(1.00313,0,0,1.00313,17.4606,302.34)"
font-family=".Helvetica Neue DeskInterface" font-size="13" font-weight="400" font-style="normal" 
>
</g>

<g fill="none" stroke="#000000" stroke-opacity="1" stroke-width="1" stroke-linecap="square" stroke-linejoin="bevel" transform="matrix(1.00313,0,0,1.00313,17.4606,302.34)"
font-family=".Helvetica Neue DeskInterface" font-size="13" font-weight="400" font-style="normal" 
>
</g>

<g fill="none" stroke="#000000" stroke-opacity="1" stroke-width="1" stroke-linecap="square" stroke-linejoin="bevel" transform="matrix(1.00313,0,0,1.00313,17.4606,302.34)"
font-family=".Helvetica Neue DeskInterface" font-size="13" font-weight="400" font-style="normal" 
>
</g>

<g fill="none" stroke="#000000" stroke-opacity="1" stroke-width="1" stroke-linecap="square" stroke-linejoin="bevel" transform="matrix(1.00313,0,0,1.00313,17.4606,302.34)"
font-family="Sans" font-size="9" font-weight="400" font-style="normal" 
>
<text fill="#000000" fill-opacity="1" stroke="none" xml:space="preserve" x="0" y="0" font-family="Sans" font-size="9" font-weight="400" font-style="normal" 
 >0.258002</text>
</g>

<g fill="none" stroke="#000000" stroke-opacity="1" stroke-width="1" stroke-linecap="square" stroke-linejoin="bevel" transform="matrix(1.00313,0,0,1.00313,17.4606,302.34)"
font-family=".Helvetica Neue DeskInterface" font-size="13" font-weight="400" font-style="normal" 
>
</g>

<g fill="none" stroke="#000000" stroke-opacity="1" stroke-width="1" stroke-linecap="square" stroke-linejoin="bevel" transform="matrix(1.00313,0,0,1.00313,0,0)"
font-family=".Helvetica Neue DeskInterface" font-size="13" font-weight="400" font-style="normal" 
>
</g>

<g fill="none" stroke="#000000" stroke-opacity="1" stroke-width="1" stroke-linecap="round" stroke-linejoin="round" transform="matrix(1.00313,0,0,1.00313,0,0)"
font-family=".Helvetica Neue DeskInterface" font-size="13" font-weight="400" font-style="normal" 
>
<polyline fill="none" vector-effect="none" points="63.5,227.5 67.5,227.5 " />
<polyline fill="none" vector-effect="none" points="624.5,227.5 620.5,227.5 " />
</g>

<g fill="none" stroke="#000000" stroke-opacity="1" stroke-width="1" stroke-linecap="square" stroke-linejoin="bevel" transform="matrix(1.00313,0,0,1.00313,0,0)"
font-family=".Helvetica Neue DeskInterface" font-size="13" font-weight="400" font-style="normal" 
>
</g>

<g fill="none" stroke="#000000" stroke-opacity="1" stroke-width="1" stroke-linecap="square" stroke-linejoin="bevel" transform="matrix(1.00313,0,0,1.00313,17.3979,231.118)"
font-family=".Helvetica Neue DeskInterface" font-size="13" font-weight="400" font-style="normal" 
>
</g>

<g fill="none" stroke="#000000" stroke-opacity="1" stroke-width="1" stroke-linecap="square" stroke-linejoin="bevel" transform="matrix(1.00313,0,0,1.00313,17.3979,231.118)"
font-family=".Helvetica Neue DeskInterface" font-size="13" font-weight="400" font-style="normal" 
>
</g>

<g fill="none" stroke="#000000" stroke-opacity="1" stroke-width="1" stroke-linecap="square" stroke-linejoin="bevel" transform="matrix(1.00313,0,0,1.00313,17.3979,231.118)"
font-family=".Helvetica Neue DeskInterface" font-size="13" font-weight="400" font-style="normal" 
>
</g>

<g fill="none" stroke="#000000" stroke-opacity="1" stroke-width="1" stroke-linecap="square" stroke-linejoin="bevel" transform="matrix(1.00313,0,0,1.00313,17.3979,231.118)"
font-family=".Helvetica Neue DeskInterface" font-size="13" font-weight="400" font-style="normal" 
>
</g>

<g fill="none" stroke="#000000" stroke-opacity="1" stroke-width="1" stroke-linecap="square" stroke-linejoin="bevel" transform="matrix(1.00313,0,0,1.00313,17.3979,231.118)"
font-family=".Helvetica Neue DeskInterface" font-size="13" font-weight="400" font-style="normal" 
>
</g>

<g fill="none" stroke="#000000" stroke-opacity="1" stroke-width="1" stroke-linecap="square" stroke-linejoin="bevel" transform="matrix(1.00313,0,0,1.00313,17.3979,231.118)"
font-family="Sans" font-size="9" font-weight="400" font-style="normal" 
>
<text fill="#000000" fill-opacity="1" stroke="none" xml:space="preserve" x="0" y="0" font-family="Sans" font-size="9" font-weight="400" font-style="normal" 
 >0.258003</text>
</g>

<g fill="none" stroke="#000000" stroke-opacity="1" stroke-width="1" stroke-linecap="square" stroke-linejoin="bevel" transform="matrix(1.00313,0,0,1.00313,17.3979,231.118)"
font-family=".Helvetica Neue DeskInterface" font-size="13" font-weight="400" font-style="normal" 
>
</g>

<g fill="none" stroke="#000000" stroke-opacity="1" stroke-width="1" stroke-linecap="square" stroke-linejoin="bevel" transform="matrix(1.00313,0,0,1.00313,0,0)"
font-family=".Helvetica Neue DeskInterface" font-size="13" font-weight="400" font-style="normal" 
>
</g>

<g fill="none" stroke="#000000" stroke-opacity="1" stroke-width="1" stroke-linecap="round" stroke-linejoin="round" transform="matrix(1.00313,0,0,1.00313,0,0)"
font-family=".Helvetica Neue DeskInterface" font-size="13" font-weight="400" font-style="normal" 
>
<polyline fill="none" vector-effect="none" points="63.5,157.5 67.5,157.5 " />
<polyline fill="none" vector-effect="none" points="624.5,157.5 620.5,157.5 " />
</g>

<g fill="none" stroke="#000000" stroke-opacity="1" stroke-width="1" stroke-linecap="square" stroke-linejoin="bevel" transform="matrix(1.00313,0,0,1.00313,0,0)"
font-family=".Helvetica Neue DeskInterface" font-size="13" font-weight="400" font-style="normal" 
>
</g>

<g fill="none" stroke="#000000" stroke-opacity="1" stroke-width="1" stroke-linecap="square" stroke-linejoin="bevel" transform="matrix(1.00313,0,0,1.00313,17.3979,160.9)"
font-family=".Helvetica Neue DeskInterface" font-size="13" font-weight="400" font-style="normal" 
>
</g>

<g fill="none" stroke="#000000" stroke-opacity="1" stroke-width="1" stroke-linecap="square" stroke-linejoin="bevel" transform="matrix(1.00313,0,0,1.00313,17.3979,160.9)"
font-family=".Helvetica Neue DeskInterface" font-size="13" font-weight="400" font-style="normal" 
>
</g>

<g fill="none" stroke="#000000" stroke-opacity="1" stroke-width="1" stroke-linecap="square" stroke-linejoin="bevel" transform="matrix(1.00313,0,0,1.00313,17.3979,160.9)"
font-family=".Helvetica Neue DeskInterface" font-size="13" font-weight="400" font-style="normal" 
>
</g>

<g fill="none" stroke="#000000" stroke-opacity="1" stroke-width="1" stroke-linecap="square" stroke-linejoin="bevel" transform="matrix(1.00313,0,0,1.00313,17.3979,160.9)"
font-family=".Helvetica Neue DeskInterface" font-size="13" font-weight="400" font-style="normal" 
>
</g>

<g fill="none" stroke="#000000" stroke-opacity="1" stroke-width="1" stroke-linecap="square" stroke-linejoin="bevel" transform="matrix(1.00313,0,0,1.00313,17.3979,160.9)"
font-family=".Helvetica Neue DeskInterface" font-size="13" font-weight="400" font-style="normal" 
>
</g>

<g fill="none" stroke="#000000" stroke-opacity="1" stroke-width="1" stroke-linecap="square" stroke-linejoin="bevel" transform="matrix(1.00313,0,0,1.00313,17.3979,160.9)"
font-family="Sans" font-size="9" font-weight="400" font-style="normal" 
>
<text fill="#000000" fill-opacity="1" stroke="none" xml:space="preserve" x="0" y="0" font-family="Sans" font-size="9" font-weight="400" font-style="normal" 
 >0.258003</text>
</g>

<g fill="none" stroke="#000000" stroke-opacity="1" stroke-width="1" stroke-linecap="square" stroke-linejoin="bevel" transform="matrix(1.00313,0,0,1.00313,17.3979,160.9)"
font-family=".Helvetica Neue DeskInterface" font-size="13" font-weight="400" font-style="normal" 
>
</g>

<g fill="none" stroke="#000000" stroke-opacity="1" stroke-width="1" stroke-linecap="square" stroke-linejoin="bevel" transform="matrix(1.00313,0,0,1.00313,0,0)"
font-family=".Helvetica Neue DeskInterface" font-size="13" font-weight="400" font-style="normal" 
>
</g>

<g fill="none" stroke="#000000" stroke-opacity="1" stroke-width="1" stroke-linecap="round" stroke-linejoin="round" transform="matrix(1.00313,0,0,1.00313,0,0)"
font-family=".Helvetica Neue DeskInterface" font-size="13" font-weight="400" font-style="normal" 
>
<polyline fill="none" vector-effect="none" points="63.5,87.5 67.5,87.5 " />
<polyline fill="none" vector-effect="none" points="624.5,87.5 620.5,87.5 " />
</g>

<g fill="none" stroke="#000000" stroke-opacity="1" stroke-width="1" stroke-linecap="square" stroke-linejoin="bevel" transform="matrix(1.00313,0,0,1.00313,0,0)"
font-family=".Helvetica Neue DeskInterface" font-size="13" font-weight="400" font-style="normal" 
>
</g>

<g fill="none" stroke="#000000" stroke-opacity="1" stroke-width="1" stroke-linecap="square" stroke-linejoin="bevel" transform="matrix(1.00313,0,0,1.00313,17.3979,90.6809)"
font-family=".Helvetica Neue DeskInterface" font-size="13" font-weight="400" font-style="normal" 
>
</g>

<g fill="none" stroke="#000000" stroke-opacity="1" stroke-width="1" stroke-linecap="square" stroke-linejoin="bevel" transform="matrix(1.00313,0,0,1.00313,17.3979,90.6809)"
font-family=".Helvetica Neue DeskInterface" font-size="13" font-weight="400" font-style="normal" 
>
</g>

<g fill="none" stroke="#000000" stroke-opacity="1" stroke-width="1" stroke-linecap="square" stroke-linejoin="bevel" transform="matrix(1.00313,0,0,1.00313,17.3979,90.6809)"
font-family=".Helvetica Neue DeskInterface" font-size="13" font-weight="400" font-style="normal" 
>
</g>

<g fill="none" stroke="#000000" stroke-opacity="1" stroke-width="1" stroke-linecap="square" stroke-linejoin="bevel" transform="matrix(1.00313,0,0,1.00313,17.3979,90.6809)"
font-family=".Helvetica Neue DeskInterface" font-size="13" font-weight="400" font-style="normal" 
>
</g>

<g fill="none" stroke="#000000" stroke-opacity="1" stroke-width="1" stroke-linecap="square" stroke-linejoin="bevel" transform="matrix(1.00313,0,0,1.00313,17.3979,90.6809)"
font-family=".Helvetica Neue DeskInterface" font-size="13" font-weight="400" font-style="normal" 
>
</g>

<g fill="none" stroke="#000000" stroke-opacity="1" stroke-width="1" stroke-linecap="square" stroke-linejoin="bevel" transform="matrix(1.00313,0,0,1.00313,17.3979,90.6809)"
font-family="Sans" font-size="9" font-weight="400" font-style="normal" 
>
<text fill="#000000" fill-opacity="1" stroke="none" xml:space="preserve" x="0" y="0" font-family="Sans" font-size="9" font-weight="400" font-style="normal" 
 >0.258003</text>
</g>

<g fill="none" stroke="#000000" stroke-opacity="1" stroke-width="1" stroke-linecap="square" stroke-linejoin="bevel" transform="matrix(1.00313,0,0,1.00313,17.3979,90.6809)"
font-family=".Helvetica Neue DeskInterface" font-size="13" font-weight="400" font-style="normal" 
>
</g>

<g fill="none" stroke="#000000" stroke-opacity="1" stroke-width="1" stroke-linecap="square" stroke-linejoin="bevel" transform="matrix(1.00313,0,0,1.00313,0,0)"
font-family=".Helvetica Neue DeskInterface" font-size="13" font-weight="400" font-style="normal" 
>
</g>

<g fill="none" stroke="#000000" stroke-opacity="1" stroke-width="1" stroke-linecap="round" stroke-linejoin="round" transform="matrix(1.00313,0,0,1.00313,0,0)"
font-family=".Helvetica Neue DeskInterface" font-size="13" font-weight="400" font-style="normal" 
>
<polyline fill="none" vector-effect="none" points="63.5,16.5 67.5,16.5 " />
<polyline fill="none" vector-effect="none" points="624.5,16.5 620.5,16.5 " />
</g>

<g fill="none" stroke="#000000" stroke-opacity="1" stroke-width="1" stroke-linecap="square" stroke-linejoin="bevel" transform="matrix(1.00313,0,0,1.00313,0,0)"
font-family=".Helvetica Neue DeskInterface" font-size="13" font-weight="400" font-style="normal" 
>
</g>

<g fill="none" stroke="#000000" stroke-opacity="1" stroke-width="1" stroke-linecap="square" stroke-linejoin="bevel" transform="matrix(1.00313,0,0,1.00313,17.3979,20.4622)"
font-family=".Helvetica Neue DeskInterface" font-size="13" font-weight="400" font-style="normal" 
>
</g>

<g fill="none" stroke="#000000" stroke-opacity="1" stroke-width="1" stroke-linecap="square" stroke-linejoin="bevel" transform="matrix(1.00313,0,0,1.00313,17.3979,20.4622)"
font-family=".Helvetica Neue DeskInterface" font-size="13" font-weight="400" font-style="normal" 
>
</g>

<g fill="none" stroke="#000000" stroke-opacity="1" stroke-width="1" stroke-linecap="square" stroke-linejoin="bevel" transform="matrix(1.00313,0,0,1.00313,17.3979,20.4622)"
font-family=".Helvetica Neue DeskInterface" font-size="13" font-weight="400" font-style="normal" 
>
</g>

<g fill="none" stroke="#000000" stroke-opacity="1" stroke-width="1" stroke-linecap="square" stroke-linejoin="bevel" transform="matrix(1.00313,0,0,1.00313,17.3979,20.4622)"
font-family=".Helvetica Neue DeskInterface" font-size="13" font-weight="400" font-style="normal" 
>
</g>

<g fill="none" stroke="#000000" stroke-opacity="1" stroke-width="1" stroke-linecap="square" stroke-linejoin="bevel" transform="matrix(1.00313,0,0,1.00313,17.3979,20.4622)"
font-family=".Helvetica Neue DeskInterface" font-size="13" font-weight="400" font-style="normal" 
>
</g>

<g fill="none" stroke="#000000" stroke-opacity="1" stroke-width="1" stroke-linecap="square" stroke-linejoin="bevel" transform="matrix(1.00313,0,0,1.00313,17.3979,20.4622)"
font-family="Sans" font-size="9" font-weight="400" font-style="normal" 
>
<text fill="#000000" fill-opacity="1" stroke="none" xml:space="preserve" x="0" y="0" font-family="Sans" font-size="9" font-weight="400" font-style="normal" 
 >0.258003</text>
</g>

<g fill="none" stroke="#000000" stroke-opacity="1" stroke-width="1" stroke-linecap="square" stroke-linejoin="bevel" transform="matrix(1.00313,0,0,1.00313,17.3979,20.4622)"
font-family=".Helvetica Neue DeskInterface" font-size="13" font-weight="400" font-style="normal" 
>
</g>

<g fill="none" stroke="#000000" stroke-opacity="1" stroke-width="1" stroke-linecap="square" stroke-linejoin="bevel" transform="matrix(1.00313,0,0,1.00313,0,0)"
font-family=".Helvetica Neue DeskInterface" font-size="13" font-weight="400" font-style="normal" 
>
</g>

<g fill="none" stroke="#000000" stroke-opacity="1" stroke-width="1" stroke-linecap="round" stroke-linejoin="round" transform="matrix(1.00313,0,0,1.00313,0,0)"
font-family=".Helvetica Neue DeskInterface" font-size="13" font-weight="400" font-style="normal" 
>
<polyline fill="none" vector-effect="none" points="63.5,438.5 63.5,433.5 " />
<polyline fill="none" vector-effect="none" points="63.5,16.5 63.5,21.5 " />
</g>

<g fill="none" stroke="#000000" stroke-opacity="1" stroke-width="1" stroke-linecap="square" stroke-linejoin="bevel" transform="matrix(1.00313,0,0,1.00313,0,0)"
font-family=".Helvetica Neue DeskInterface" font-size="13" font-weight="400" font-style="normal" 
>
</g>

<g fill="none" stroke="#000000" stroke-opacity="1" stroke-width="1" stroke-linecap="square" stroke-linejoin="bevel" transform="matrix(1.00313,0,0,1.00313,60.211,453.812)"
font-family=".Helvetica Neue DeskInterface" font-size="13" font-weight="400" font-style="normal" 
>
</g>

<g fill="none" stroke="#000000" stroke-opacity="1" stroke-width="1" stroke-linecap="square" stroke-linejoin="bevel" transform="matrix(1.00313,0,0,1.00313,60.211,453.812)"
font-family=".Helvetica Neue DeskInterface" font-size="13" font-weight="400" font-style="normal" 
>
</g>

<g fill="none" stroke="#000000" stroke-opacity="1" stroke-width="1" stroke-linecap="square" stroke-linejoin="bevel" transform="matrix(1.00313,0,0,1.00313,60.211,453.812)"
font-family=".Helvetica Neue DeskInterface" font-size="13" font-weight="400" font-style="normal" 
>
</g>

<g fill="none" stroke="#000000" stroke-opacity="1" stroke-width="1" stroke-linecap="square" stroke-linejoin="bevel" transform="matrix(1.00313,0,0,1.00313,60.211,453.812)"
font-family=".Helvetica Neue DeskInterface" font-size="13" font-weight="400" font-style="normal" 
>
</g>

<g fill="none" stroke="#000000" stroke-opacity="1" stroke-width="1" stroke-linecap="square" stroke-linejoin="bevel" transform="matrix(1.00313,0,0,1.00313,60.211,453.812)"
font-family=".Helvetica Neue DeskInterface" font-size="13" font-weight="400" font-style="normal" 
>
</g>

<g fill="none" stroke="#000000" stroke-opacity="1" stroke-width="1" stroke-linecap="square" stroke-linejoin="bevel" transform="matrix(1.00313,0,0,1.00313,60.211,453.812)"
font-family="Sans" font-size="9" font-weight="400" font-style="normal" 
>
<text fill="#000000" fill-opacity="1" stroke="none" xml:space="preserve" x="0" y="0" font-family="Sans" font-size="9" font-weight="400" font-style="normal" 
 > 0</text>
</g>

<g fill="none" stroke="#000000" stroke-opacity="1" stroke-width="1" stroke-linecap="square" stroke-linejoin="bevel" transform="matrix(1.00313,0,0,1.00313,60.211,453.812)"
font-family=".Helvetica Neue DeskInterface" font-size="13" font-weight="400" font-style="normal" 
>
</g>

<g fill="none" stroke="#000000" stroke-opacity="1" stroke-width="1" stroke-linecap="square" stroke-linejoin="bevel" transform="matrix(1.00313,0,0,1.00313,0,0)"
font-family=".Helvetica Neue DeskInterface" font-size="13" font-weight="400" font-style="normal" 
>
</g>

<g fill="none" stroke="#000000" stroke-opacity="1" stroke-width="1" stroke-linecap="round" stroke-linejoin="round" transform="matrix(1.00313,0,0,1.00313,0,0)"
font-family=".Helvetica Neue DeskInterface" font-size="13" font-weight="400" font-style="normal" 
>
<polyline fill="none" vector-effect="none" points="157.5,438.5 157.5,433.5 " />
<polyline fill="none" vector-effect="none" points="157.5,16.5 157.5,21.5 " />
</g>

<g fill="none" stroke="#000000" stroke-opacity="1" stroke-width="1" stroke-linecap="square" stroke-linejoin="bevel" transform="matrix(1.00313,0,0,1.00313,0,0)"
font-family=".Helvetica Neue DeskInterface" font-size="13" font-weight="400" font-style="normal" 
>
</g>

<g fill="none" stroke="#000000" stroke-opacity="1" stroke-width="1" stroke-linecap="square" stroke-linejoin="bevel" transform="matrix(1.00313,0,0,1.00313,146.621,453.812)"
font-family=".Helvetica Neue DeskInterface" font-size="13" font-weight="400" font-style="normal" 
>
</g>

<g fill="none" stroke="#000000" stroke-opacity="1" stroke-width="1" stroke-linecap="square" stroke-linejoin="bevel" transform="matrix(1.00313,0,0,1.00313,146.621,453.812)"
font-family=".Helvetica Neue DeskInterface" font-size="13" font-weight="400" font-style="normal" 
>
</g>

<g fill="none" stroke="#000000" stroke-opacity="1" stroke-width="1" stroke-linecap="square" stroke-linejoin="bevel" transform="matrix(1.00313,0,0,1.00313,146.621,453.812)"
font-family=".Helvetica Neue DeskInterface" font-size="13" font-weight="400" font-style="normal" 
>
</g>

<g fill="none" stroke="#000000" stroke-opacity="1" stroke-width="1" stroke-linecap="square" stroke-linejoin="bevel" transform="matrix(1.00313,0,0,1.00313,146.621,453.812)"
font-family=".Helvetica Neue DeskInterface" font-size="13" font-weight="400" font-style="normal" 
>
</g>

<g fill="none" stroke="#000000" stroke-opacity="1" stroke-width="1" stroke-linecap="square" stroke-linejoin="bevel" transform="matrix(1.00313,0,0,1.00313,146.621,453.812)"
font-family=".Helvetica Neue DeskInterface" font-size="13" font-weight="400" font-style="normal" 
>
</g>

<g fill="none" stroke="#000000" stroke-opacity="1" stroke-width="1" stroke-linecap="square" stroke-linejoin="bevel" transform="matrix(1.00313,0,0,1.00313,146.621,453.812)"
font-family="Sans" font-size="9" font-weight="400" font-style="normal" 
>
<text fill="#000000" fill-opacity="1" stroke="none" xml:space="preserve" x="0" y="0" font-family="Sans" font-size="9" font-weight="400" font-style="normal" 
 > 0.05</text>
</g>

<g fill="none" stroke="#000000" stroke-opacity="1" stroke-width="1" stroke-linecap="square" stroke-linejoin="bevel" transform="matrix(1.00313,0,0,1.00313,146.621,453.812)"
font-family=".Helvetica Neue DeskInterface" font-size="13" font-weight="400" font-style="normal" 
>
</g>

<g fill="none" stroke="#000000" stroke-opacity="1" stroke-width="1" stroke-linecap="square" stroke-linejoin="bevel" transform="matrix(1.00313,0,0,1.00313,0,0)"
font-family=".Helvetica Neue DeskInterface" font-size="13" font-weight="400" font-style="normal" 
>
</g>

<g fill="none" stroke="#000000" stroke-opacity="1" stroke-width="1" stroke-linecap="round" stroke-linejoin="round" transform="matrix(1.00313,0,0,1.00313,0,0)"
font-family=".Helvetica Neue DeskInterface" font-size="13" font-weight="400" font-style="normal" 
>
<polyline fill="none" vector-effect="none" points="250.5,438.5 250.5,433.5 " />
<polyline fill="none" vector-effect="none" points="250.5,16.5 250.5,21.5 " />
</g>

<g fill="none" stroke="#000000" stroke-opacity="1" stroke-width="1" stroke-linecap="square" stroke-linejoin="bevel" transform="matrix(1.00313,0,0,1.00313,0,0)"
font-family=".Helvetica Neue DeskInterface" font-size="13" font-weight="400" font-style="normal" 
>
</g>

<g fill="none" stroke="#000000" stroke-opacity="1" stroke-width="1" stroke-linecap="square" stroke-linejoin="bevel" transform="matrix(1.00313,0,0,1.00313,243.665,453.812)"
font-family=".Helvetica Neue DeskInterface" font-size="13" font-weight="400" font-style="normal" 
>
</g>

<g fill="none" stroke="#000000" stroke-opacity="1" stroke-width="1" stroke-linecap="square" stroke-linejoin="bevel" transform="matrix(1.00313,0,0,1.00313,243.665,453.812)"
font-family=".Helvetica Neue DeskInterface" font-size="13" font-weight="400" font-style="normal" 
>
</g>

<g fill="none" stroke="#000000" stroke-opacity="1" stroke-width="1" stroke-linecap="square" stroke-linejoin="bevel" transform="matrix(1.00313,0,0,1.00313,243.665,453.812)"
font-family=".Helvetica Neue DeskInterface" font-size="13" font-weight="400" font-style="normal" 
>
</g>

<g fill="none" stroke="#000000" stroke-opacity="1" stroke-width="1" stroke-linecap="square" stroke-linejoin="bevel" transform="matrix(1.00313,0,0,1.00313,243.665,453.812)"
font-family=".Helvetica Neue DeskInterface" font-size="13" font-weight="400" font-style="normal" 
>
</g>

<g fill="none" stroke="#000000" stroke-opacity="1" stroke-width="1" stroke-linecap="square" stroke-linejoin="bevel" transform="matrix(1.00313,0,0,1.00313,243.665,453.812)"
font-family=".Helvetica Neue DeskInterface" font-size="13" font-weight="400" font-style="normal" 
>
</g>

<g fill="none" stroke="#000000" stroke-opacity="1" stroke-width="1" stroke-linecap="square" stroke-linejoin="bevel" transform="matrix(1.00313,0,0,1.00313,243.665,453.812)"
font-family="Sans" font-size="9" font-weight="400" font-style="normal" 
>
<text fill="#000000" fill-opacity="1" stroke="none" xml:space="preserve" x="0" y="0" font-family="Sans" font-size="9" font-weight="400" font-style="normal" 
 > 0.1</text>
</g>

<g fill="none" stroke="#000000" stroke-opacity="1" stroke-width="1" stroke-linecap="square" stroke-linejoin="bevel" transform="matrix(1.00313,0,0,1.00313,243.665,453.812)"
font-family=".Helvetica Neue DeskInterface" font-size="13" font-weight="400" font-style="normal" 
>
</g>

<g fill="none" stroke="#000000" stroke-opacity="1" stroke-width="1" stroke-linecap="square" stroke-linejoin="bevel" transform="matrix(1.00313,0,0,1.00313,0,0)"
font-family=".Helvetica Neue DeskInterface" font-size="13" font-weight="400" font-style="normal" 
>
</g>

<g fill="none" stroke="#000000" stroke-opacity="1" stroke-width="1" stroke-linecap="round" stroke-linejoin="round" transform="matrix(1.00313,0,0,1.00313,0,0)"
font-family=".Helvetica Neue DeskInterface" font-size="13" font-weight="400" font-style="normal" 
>
<polyline fill="none" vector-effect="none" points="344.5,438.5 344.5,433.5 " />
<polyline fill="none" vector-effect="none" points="344.5,16.5 344.5,21.5 " />
</g>

<g fill="none" stroke="#000000" stroke-opacity="1" stroke-width="1" stroke-linecap="square" stroke-linejoin="bevel" transform="matrix(1.00313,0,0,1.00313,0,0)"
font-family=".Helvetica Neue DeskInterface" font-size="13" font-weight="400" font-style="normal" 
>
</g>

<g fill="none" stroke="#000000" stroke-opacity="1" stroke-width="1" stroke-linecap="square" stroke-linejoin="bevel" transform="matrix(1.00313,0,0,1.00313,334.205,453.812)"
font-family=".Helvetica Neue DeskInterface" font-size="13" font-weight="400" font-style="normal" 
>
</g>

<g fill="none" stroke="#000000" stroke-opacity="1" stroke-width="1" stroke-linecap="square" stroke-linejoin="bevel" transform="matrix(1.00313,0,0,1.00313,334.205,453.812)"
font-family=".Helvetica Neue DeskInterface" font-size="13" font-weight="400" font-style="normal" 
>
</g>

<g fill="none" stroke="#000000" stroke-opacity="1" stroke-width="1" stroke-linecap="square" stroke-linejoin="bevel" transform="matrix(1.00313,0,0,1.00313,334.205,453.812)"
font-family=".Helvetica Neue DeskInterface" font-size="13" font-weight="400" font-style="normal" 
>
</g>

<g fill="none" stroke="#000000" stroke-opacity="1" stroke-width="1" stroke-linecap="square" stroke-linejoin="bevel" transform="matrix(1.00313,0,0,1.00313,334.205,453.812)"
font-family=".Helvetica Neue DeskInterface" font-size="13" font-weight="400" font-style="normal" 
>
</g>

<g fill="none" stroke="#000000" stroke-opacity="1" stroke-width="1" stroke-linecap="square" stroke-linejoin="bevel" transform="matrix(1.00313,0,0,1.00313,334.205,453.812)"
font-family=".Helvetica Neue DeskInterface" font-size="13" font-weight="400" font-style="normal" 
>
</g>

<g fill="none" stroke="#000000" stroke-opacity="1" stroke-width="1" stroke-linecap="square" stroke-linejoin="bevel" transform="matrix(1.00313,0,0,1.00313,334.205,453.812)"
font-family="Sans" font-size="9" font-weight="400" font-style="normal" 
>
<text fill="#000000" fill-opacity="1" stroke="none" xml:space="preserve" x="0" y="0" font-family="Sans" font-size="9" font-weight="400" font-style="normal" 
 > 0.15</text>
</g>

<g fill="none" stroke="#000000" stroke-opacity="1" stroke-width="1" stroke-linecap="square" stroke-linejoin="bevel" transform="matrix(1.00313,0,0,1.00313,334.205,453.812)"
font-family=".Helvetica Neue DeskInterface" font-size="13" font-weight="400" font-style="normal" 
>
</g>

<g fill="none" stroke="#000000" stroke-opacity="1" stroke-width="1" stroke-linecap="square" stroke-linejoin="bevel" transform="matrix(1.00313,0,0,1.00313,0,0)"
font-family=".Helvetica Neue DeskInterface" font-size="13" font-weight="400" font-style="normal" 
>
</g>

<g fill="none" stroke="#000000" stroke-opacity="1" stroke-width="1" stroke-linecap="round" stroke-linejoin="round" transform="matrix(1.00313,0,0,1.00313,0,0)"
font-family=".Helvetica Neue DeskInterface" font-size="13" font-weight="400" font-style="normal" 
>
<polyline fill="none" vector-effect="none" points="437.5,438.5 437.5,433.5 " />
<polyline fill="none" vector-effect="none" points="437.5,16.5 437.5,21.5 " />
</g>

<g fill="none" stroke="#000000" stroke-opacity="1" stroke-width="1" stroke-linecap="square" stroke-linejoin="bevel" transform="matrix(1.00313,0,0,1.00313,0,0)"
font-family=".Helvetica Neue DeskInterface" font-size="13" font-weight="400" font-style="normal" 
>
</g>

<g fill="none" stroke="#000000" stroke-opacity="1" stroke-width="1" stroke-linecap="square" stroke-linejoin="bevel" transform="matrix(1.00313,0,0,1.00313,431.344,453.812)"
font-family=".Helvetica Neue DeskInterface" font-size="13" font-weight="400" font-style="normal" 
>
</g>

<g fill="none" stroke="#000000" stroke-opacity="1" stroke-width="1" stroke-linecap="square" stroke-linejoin="bevel" transform="matrix(1.00313,0,0,1.00313,431.344,453.812)"
font-family=".Helvetica Neue DeskInterface" font-size="13" font-weight="400" font-style="normal" 
>
</g>

<g fill="none" stroke="#000000" stroke-opacity="1" stroke-width="1" stroke-linecap="square" stroke-linejoin="bevel" transform="matrix(1.00313,0,0,1.00313,431.344,453.812)"
font-family=".Helvetica Neue DeskInterface" font-size="13" font-weight="400" font-style="normal" 
>
</g>

<g fill="none" stroke="#000000" stroke-opacity="1" stroke-width="1" stroke-linecap="square" stroke-linejoin="bevel" transform="matrix(1.00313,0,0,1.00313,431.344,453.812)"
font-family=".Helvetica Neue DeskInterface" font-size="13" font-weight="400" font-style="normal" 
>
</g>

<g fill="none" stroke="#000000" stroke-opacity="1" stroke-width="1" stroke-linecap="square" stroke-linejoin="bevel" transform="matrix(1.00313,0,0,1.00313,431.344,453.812)"
font-family=".Helvetica Neue DeskInterface" font-size="13" font-weight="400" font-style="normal" 
>
</g>

<g fill="none" stroke="#000000" stroke-opacity="1" stroke-width="1" stroke-linecap="square" stroke-linejoin="bevel" transform="matrix(1.00313,0,0,1.00313,431.344,453.812)"
font-family="Sans" font-size="9" font-weight="400" font-style="normal" 
>
<text fill="#000000" fill-opacity="1" stroke="none" xml:space="preserve" x="0" y="0" font-family="Sans" font-size="9" font-weight="400" font-style="normal" 
 > 0.2</text>
</g>

<g fill="none" stroke="#000000" stroke-opacity="1" stroke-width="1" stroke-linecap="square" stroke-linejoin="bevel" transform="matrix(1.00313,0,0,1.00313,431.344,453.812)"
font-family=".Helvetica Neue DeskInterface" font-size="13" font-weight="400" font-style="normal" 
>
</g>

<g fill="none" stroke="#000000" stroke-opacity="1" stroke-width="1" stroke-linecap="square" stroke-linejoin="bevel" transform="matrix(1.00313,0,0,1.00313,0,0)"
font-family=".Helvetica Neue DeskInterface" font-size="13" font-weight="400" font-style="normal" 
>
</g>

<g fill="none" stroke="#000000" stroke-opacity="1" stroke-width="1" stroke-linecap="round" stroke-linejoin="round" transform="matrix(1.00313,0,0,1.00313,0,0)"
font-family=".Helvetica Neue DeskInterface" font-size="13" font-weight="400" font-style="normal" 
>
<polyline fill="none" vector-effect="none" points="531.5,438.5 531.5,433.5 " />
<polyline fill="none" vector-effect="none" points="531.5,16.5 531.5,21.5 " />
</g>

<g fill="none" stroke="#000000" stroke-opacity="1" stroke-width="1" stroke-linecap="square" stroke-linejoin="bevel" transform="matrix(1.00313,0,0,1.00313,0,0)"
font-family=".Helvetica Neue DeskInterface" font-size="13" font-weight="400" font-style="normal" 
>
</g>

<g fill="none" stroke="#000000" stroke-opacity="1" stroke-width="1" stroke-linecap="square" stroke-linejoin="bevel" transform="matrix(1.00313,0,0,1.00313,521.79,453.812)"
font-family=".Helvetica Neue DeskInterface" font-size="13" font-weight="400" font-style="normal" 
>
</g>

<g fill="none" stroke="#000000" stroke-opacity="1" stroke-width="1" stroke-linecap="square" stroke-linejoin="bevel" transform="matrix(1.00313,0,0,1.00313,521.79,453.812)"
font-family=".Helvetica Neue DeskInterface" font-size="13" font-weight="400" font-style="normal" 
>
</g>

<g fill="none" stroke="#000000" stroke-opacity="1" stroke-width="1" stroke-linecap="square" stroke-linejoin="bevel" transform="matrix(1.00313,0,0,1.00313,521.79,453.812)"
font-family=".Helvetica Neue DeskInterface" font-size="13" font-weight="400" font-style="normal" 
>
</g>

<g fill="none" stroke="#000000" stroke-opacity="1" stroke-width="1" stroke-linecap="square" stroke-linejoin="bevel" transform="matrix(1.00313,0,0,1.00313,521.79,453.812)"
font-family=".Helvetica Neue DeskInterface" font-size="13" font-weight="400" font-style="normal" 
>
</g>

<g fill="none" stroke="#000000" stroke-opacity="1" stroke-width="1" stroke-linecap="square" stroke-linejoin="bevel" transform="matrix(1.00313,0,0,1.00313,521.79,453.812)"
font-family=".Helvetica Neue DeskInterface" font-size="13" font-weight="400" font-style="normal" 
>
</g>

<g fill="none" stroke="#000000" stroke-opacity="1" stroke-width="1" stroke-linecap="square" stroke-linejoin="bevel" transform="matrix(1.00313,0,0,1.00313,521.79,453.812)"
font-family="Sans" font-size="9" font-weight="400" font-style="normal" 
>
<text fill="#000000" fill-opacity="1" stroke="none" xml:space="preserve" x="0" y="0" font-family="Sans" font-size="9" font-weight="400" font-style="normal" 
 > 0.25</text>
</g>

<g fill="none" stroke="#000000" stroke-opacity="1" stroke-width="1" stroke-linecap="square" stroke-linejoin="bevel" transform="matrix(1.00313,0,0,1.00313,521.79,453.812)"
font-family=".Helvetica Neue DeskInterface" font-size="13" font-weight="400" font-style="normal" 
>
</g>

<g fill="none" stroke="#000000" stroke-opacity="1" stroke-width="1" stroke-linecap="square" stroke-linejoin="bevel" transform="matrix(1.00313,0,0,1.00313,0,0)"
font-family=".Helvetica Neue DeskInterface" font-size="13" font-weight="400" font-style="normal" 
>
</g>

<g fill="none" stroke="#000000" stroke-opacity="1" stroke-width="1" stroke-linecap="round" stroke-linejoin="round" transform="matrix(1.00313,0,0,1.00313,0,0)"
font-family=".Helvetica Neue DeskInterface" font-size="13" font-weight="400" font-style="normal" 
>
<polyline fill="none" vector-effect="none" points="624.5,438.5 624.5,433.5 " />
<polyline fill="none" vector-effect="none" points="624.5,16.5 624.5,21.5 " />
</g>

<g fill="none" stroke="#000000" stroke-opacity="1" stroke-width="1" stroke-linecap="square" stroke-linejoin="bevel" transform="matrix(1.00313,0,0,1.00313,0,0)"
font-family=".Helvetica Neue DeskInterface" font-size="13" font-weight="400" font-style="normal" 
>
</g>

<g fill="none" stroke="#000000" stroke-opacity="1" stroke-width="1" stroke-linecap="square" stroke-linejoin="bevel" transform="matrix(1.00313,0,0,1.00313,618.897,453.812)"
font-family=".Helvetica Neue DeskInterface" font-size="13" font-weight="400" font-style="normal" 
>
</g>

<g fill="none" stroke="#000000" stroke-opacity="1" stroke-width="1" stroke-linecap="square" stroke-linejoin="bevel" transform="matrix(1.00313,0,0,1.00313,618.897,453.812)"
font-family=".Helvetica Neue DeskInterface" font-size="13" font-weight="400" font-style="normal" 
>
</g>

<g fill="none" stroke="#000000" stroke-opacity="1" stroke-width="1" stroke-linecap="square" stroke-linejoin="bevel" transform="matrix(1.00313,0,0,1.00313,618.897,453.812)"
font-family=".Helvetica Neue DeskInterface" font-size="13" font-weight="400" font-style="normal" 
>
</g>

<g fill="none" stroke="#000000" stroke-opacity="1" stroke-width="1" stroke-linecap="square" stroke-linejoin="bevel" transform="matrix(1.00313,0,0,1.00313,618.897,453.812)"
font-family=".Helvetica Neue DeskInterface" font-size="13" font-weight="400" font-style="normal" 
>
</g>

<g fill="none" stroke="#000000" stroke-opacity="1" stroke-width="1" stroke-linecap="square" stroke-linejoin="bevel" transform="matrix(1.00313,0,0,1.00313,618.897,453.812)"
font-family=".Helvetica Neue DeskInterface" font-size="13" font-weight="400" font-style="normal" 
>
</g>

<g fill="none" stroke="#000000" stroke-opacity="1" stroke-width="1" stroke-linecap="square" stroke-linejoin="bevel" transform="matrix(1.00313,0,0,1.00313,618.897,453.812)"
font-family="Sans" font-size="9" font-weight="400" font-style="normal" 
>
<text fill="#000000" fill-opacity="1" stroke="none" xml:space="preserve" x="0" y="0" font-family="Sans" font-size="9" font-weight="400" font-style="normal" 
 > 0.3</text>
</g>

<g fill="none" stroke="#000000" stroke-opacity="1" stroke-width="1" stroke-linecap="square" stroke-linejoin="bevel" transform="matrix(1.00313,0,0,1.00313,618.897,453.812)"
font-family=".Helvetica Neue DeskInterface" font-size="13" font-weight="400" font-style="normal" 
>
</g>

<g fill="none" stroke="#000000" stroke-opacity="1" stroke-width="1" stroke-linecap="square" stroke-linejoin="bevel" transform="matrix(1.00313,0,0,1.00313,0,0)"
font-family=".Helvetica Neue DeskInterface" font-size="13" font-weight="400" font-style="normal" 
>
</g>

<g fill="none" stroke="#000000" stroke-opacity="1" stroke-dasharray="1,2" stroke-dashoffset="0" stroke-width="1" stroke-linecap="round" stroke-linejoin="round" transform="matrix(1.00313,0,0,1.00313,0,0)"
font-family=".Helvetica Neue DeskInterface" font-size="13" font-weight="400" font-style="normal" 
>
<polyline fill="none" vector-effect="none" points="63.5,438.5 63.5,16.5 " />
</g>

<g fill="none" stroke="#000000" stroke-opacity="1" stroke-width="1" stroke-linecap="round" stroke-linejoin="round" transform="matrix(1.00313,0,0,1.00313,0,0)"
font-family=".Helvetica Neue DeskInterface" font-size="13" font-weight="400" font-style="normal" 
>
<polyline fill="none" vector-effect="none" points="63.5,16.5 63.5,16.5 63.5,438.5 624.5,438.5 624.5,16.5 63.5,16.5 " />
</g>

<g fill="none" stroke="#000000" stroke-opacity="1" stroke-width="1" stroke-linecap="square" stroke-linejoin="bevel" transform="matrix(1.00313,0,0,1.00313,0,0)"
font-family=".Helvetica Neue DeskInterface" font-size="13" font-weight="400" font-style="normal" 
>
</g>

<g fill="none" stroke="#000000" stroke-opacity="1" stroke-width="1" stroke-linecap="square" stroke-linejoin="bevel" transform="matrix(1,0,0,1,0,0)"
font-family=".Helvetica Neue DeskInterface" font-size="13" font-weight="400" font-style="normal" 
>
</g>
</g>
</svg>
